<svg width="14" height="8" viewBox="0 0 14 8" fill="none" xmlns="http://www.w3.org/2000/svg">
<path d="M6.29275 0.292984C6.46494 0.120807 6.69404 0.0173755 6.93707 0.00209428C7.1801 -0.0131869 7.42035 0.0607321 7.61275 0.209983L7.70675 0.292984L13.7068 6.29298L13.7898 6.38698L13.8438 6.46398L13.8978 6.55998L13.9148 6.59598L13.9417 6.66298L13.9738 6.77098L13.9837 6.82398L13.9937 6.88398L13.9977 6.94098L13.9998 6.99998L13.9977 7.05898L13.9928 7.11698L13.9837 7.17698L13.9738 7.22898L13.9417 7.33698L13.9148 7.40398L13.8447 7.53598L13.7798 7.62598L13.7068 7.70698L13.6128 7.78998L13.5357 7.84398L13.4398 7.89798L13.4037 7.91498L13.3368 7.94198L13.2288 7.97398L13.1758 7.98398L13.1157 7.99398L13.0588 7.99798L12.9998 7.99998H0.99975C0.14775 7.99998 -0.297249 7.01398 0.216751 6.37698L0.292751 6.29298L6.29275 0.292984Z" fill="#1F021F"/>
</svg>
