<svg width="41" height="40" viewBox="0 0 41 40" fill="none" xmlns="http://www.w3.org/2000/svg">
<path d="M16.6119 0.948578C16.3872 0.948578 16.1849 1.04036 16.044 1.20577L1.14335 18.7594C0.856975 19.0974 0.89299 19.6529 1.20957 20.0586L1.30193 20.1649C1.31878 20.1818 8.16394 26.0563 21.8385 37.7897C21.9403 37.8772 22.0541 37.945 22.173 37.9888C22.2921 38.0327 22.4141 38.0521 22.5319 38.0454C22.6498 38.039 22.7612 38.0067 22.8598 37.9509C22.9585 37.895 23.0423 37.8164 23.1065 37.7197C23.2285 37.5363 23.2744 37.2984 23.2353 37.0518L21.6231 26.8689C22.4678 26.893 23.3092 26.98 24.1404 27.1285L24.3911 27.1744C31.2962 28.5075 37.3468 32.7386 40.2618 39.8496L40.3468 39.5273C40.6707 38.2182 41.1182 35.5243 40.6927 32.8365C38.9178 21.6259 29.4343 12.4778 19.2611 11.9574L17.6756 1.94356C17.5886 1.39416 17.1131 0.948578 16.6119 0.948578Z" fill="url(#paint0_linear_40000002_192)"/>
<defs>
<linearGradient id="paint0_linear_40000002_192" x1="20.9078" y1="0.948578" x2="20.9078" y2="39.8496" gradientUnits="userSpaceOnUse">
<stop stop-color="#E7EFFF"/>
<stop offset="1" stop-color="#A6C4FF"/>
</linearGradient>
</defs>
</svg>
