<svg width="34" height="40" viewBox="0 0 34 40" fill="none" xmlns="http://www.w3.org/2000/svg">
<path d="M32.0681 21.9523C32.032 21.6466 31.9857 21.3551 31.9359 21.0719C31.9252 21.0116 31.9135 20.9518 31.9023 20.8916C31.6248 19.4104 31.2122 18.2967 31.0708 17.943C30.8406 17.3702 30.6241 16.8298 30.0071 15.7224C29.8262 15.3971 29.5526 14.9816 29.3478 14.6715C29.22 14.4779 29.0328 14.2325 28.8982 14.0453C29.1084 14.3236 13.5768 7.85559 13.5768 7.85559C12.2084 8.08146 11.3013 8.38279 11.056 8.46951C10.1372 8.79485 10.0826 8.81445 9.52465 9.06384C8.68877 9.43817 8.07625 9.80221 8.07089 9.80564C7.22038 10.3196 7.18673 10.3397 6.70295 10.6876C6.41522 10.8943 5.97045 11.2251 5.4301 11.7043C4.22603 12.7729 3.48769 13.7513 3.20922 14.1198C1.39701 16.5201 0.695718 19.0826 0.666458 19.1909C0.44115 20.0297 0.186105 20.9807 0.112953 21.8181C0.0768647 22.2326 0.0012657 22.7843 0.000290342 23.1998C-0.00312341 23.9533 0.0232172 24.9597 0.097832 25.7089C0.169521 26.4223 0.516256 28.9554 1.97441 31.607C3.00781 33.4865 4.36014 35.1093 5.99337 36.4307C6.84778 37.1221 7.60661 37.5817 7.74998 37.6664C8.02796 37.8311 8.37373 38.0363 8.76631 38.2348C9.20425 38.4562 9.36079 38.5243 9.37688 38.5317C9.55732 38.6091 9.80215 38.7042 9.97771 38.7933C11.4047 39.3803 12.9608 39.7703 14.479 39.9212C16.6409 40.1363 18.3619 39.8526 18.8374 39.7605C19.7786 39.5788 20.2082 39.4955 21.3528 39.1064C22.0209 38.8796 22.8948 38.516 23.5122 38.1735C24.5456 37.5998 24.8236 37.4455 25.6298 36.8506C26.2286 36.4087 26.9845 35.7575 27.5063 35.2259C28.0369 34.6845 28.6958 33.9109 29.1366 33.2935C29.5882 32.6619 30.1086 31.7629 30.4709 31.0759C30.6426 30.7511 31.5185 29.0078 31.9398 26.604C32.1388 25.4678 32.1627 24.6197 32.1763 24.1131C32.1968 23.3512 32.1568 22.9131 32.0681 21.9523Z" fill="url(#paint0_radial_40000002_1412)"/>
<path opacity="0.4" d="M30.0223 15.7499C30.0165 15.7396 30.0126 15.7317 30.0072 15.7219C29.8263 15.3966 29.5527 14.9811 29.3479 14.671C29.2201 14.4774 29.0328 14.232 28.8982 14.0448C29.0923 14.3025 15.7967 8.77866 13.828 7.95944L13.4032 9.0207C13.3647 9.11674 13.352 9.22404 13.3657 9.34359C13.5305 10.7517 17.4017 13.2535 22.0132 14.9321C26.2262 16.4667 29.5985 16.7817 30.0223 15.7499Z" fill="#625F6A"/>
<path d="M14.5423 30.3283C16.5905 30.4576 18.5251 30.5801 21.5463 30.3263C19.877 28.804 17.9746 27.5855 16.2043 26.1944C18.0272 24.5281 19.541 23.1072 21.0396 21.2713C19.878 21.4879 18.2872 21.7843 14.5462 22.0361C14.7851 20.1311 15.0807 18.0713 15.8254 15.6823C13.6415 17.6563 12.4457 18.7519 10.9232 20.2615C10.2234 19.0645 9.2656 17.4241 8.74329 15.2918C8.26927 16.4025 7.47631 18.2605 7.14176 21.7686C2.99844 21.0709 2.99844 21.0709 2.5249 21.0954C3.06525 22.2934 3.62462 23.532 5.53729 25.9304C4.55608 27.1278 3.62949 28.2596 3.08329 30.0696C4.07279 29.9995 4.59998 29.9809 7.13347 29.9726C7.2749 31.3993 7.43582 33.0167 8.07859 35.347C8.52384 34.5552 8.90862 33.8712 10.7023 31.7207C12.3804 33.4537 12.989 34.0216 15.0856 35.907C15.0197 34.5664 15.0197 34.5664 14.5423 30.3283Z" fill="#FDC816"/>
<path d="M30.0652 9.26668C30.2057 10.4661 27.1348 10.2789 23.206 8.84874C19.2773 7.41854 15.9791 5.28622 15.8386 4.08679C15.6977 2.88736 18.7686 3.07404 22.6974 4.50424C26.6256 5.93444 29.9243 8.06676 30.0652 9.26668Z" fill="url(#paint1_linear_40000002_1412)"/>
<path d="M30.7154 10.5602C30.4687 10.0291 30.2214 9.49845 29.9746 8.96733C30.0234 9.07218 30.0537 9.17262 30.0654 9.2667C30.2058 10.4661 27.1349 10.279 23.2062 8.84876C19.2774 7.41856 15.9792 5.28624 15.8388 4.08681C15.8037 3.78597 15.9705 3.57234 16.3016 3.44348C15.7573 3.65515 15.2131 3.86632 14.6679 4.0775C14.2787 4.2289 14.0832 4.47926 14.1246 4.83253C14.2899 6.24068 18.1611 8.74293 22.7716 10.4215C27.3821 12.1002 30.9861 12.3192 30.8213 10.9115C30.8086 10.8008 30.773 10.6837 30.7154 10.5602Z" fill="url(#paint2_linear_40000002_1412)"/>
<path d="M28.5276 10.0546C27.2777 10.0462 25.3743 9.63809 23.2061 8.84876C19.2773 7.41856 15.9791 5.28624 15.8387 4.08681C15.8036 3.78597 15.9704 3.57234 16.3015 3.44348C16.1771 3.49199 16.0528 3.54001 15.9284 3.58851C15.7704 3.71394 15.6919 3.87808 15.7163 4.08729C15.8567 5.28672 19.1554 7.41905 23.0836 8.84925C25.3236 9.66455 27.2821 10.0737 28.5276 10.0546Z" fill="#AFAABD"/>
<path d="M12.601 8.40874L14.162 4.50961C14.1235 4.60565 14.1108 4.71344 14.1245 4.8325C14.2898 6.24065 18.161 8.7429 22.7715 10.4215C26.9914 11.958 30.3681 12.2716 30.7836 11.2339C30.2632 12.5337 29.7429 13.8336 29.2225 15.133C28.8065 16.1702 25.4303 15.8567 21.2104 14.3202C16.5994 12.6415 12.7283 10.1398 12.5634 8.73163C12.5498 8.61207 12.5624 8.50477 12.601 8.40874Z" fill="url(#paint3_linear_40000002_1412)"/>
<path d="M24.3853 7.5131C24.3853 7.5131 23.7387 7.81051 22.4151 7.1956C21.2369 6.64782 21.3115 6.02116 21.3115 6.02116C21.4251 5.78157 24.1907 0.157768 33.1109 0L33.1709 3.42925C26.4648 3.54733 24.4673 7.35141 24.3853 7.5131Z" fill="#B56118"/>
<path opacity="0.1" d="M7.80017 21.505C7.11401 24.7191 5.07453 27.0053 3.24232 26.6119C1.41206 26.2169 0.48206 23.2919 1.16725 20.0792C1.85244 16.8635 3.89288 14.5774 5.7246 14.9713C7.55535 15.3662 8.48536 18.2908 7.80017 21.505Z" fill="white"/>
<path opacity="0.1" d="M10.9511 14.4206C9.43496 15.0659 7.82464 14.6842 7.35159 13.5661C6.87952 12.4475 7.72466 11.0173 9.23939 10.3711C10.7546 9.72577 12.3659 10.1084 12.8385 11.227C13.3105 12.3446 12.4654 13.7743 10.9511 14.4206Z" fill="white"/>
<defs>
<radialGradient id="paint0_radial_40000002_1412" cx="0" cy="0" r="1" gradientUnits="userSpaceOnUse" gradientTransform="translate(12.8037 16.2185) scale(21.3029 21.4027)">
<stop stop-color="#66636E"/>
<stop offset="1" stop-color="#343238"/>
</radialGradient>
<linearGradient id="paint1_linear_40000002_1412" x1="15.1023" y1="-1.86911" x2="31.2161" y2="15.5111" gradientUnits="userSpaceOnUse">
<stop stop-color="#66636E"/>
<stop offset="0.2581" stop-color="#9A97A2"/>
<stop offset="1" stop-color="#343238"/>
</linearGradient>
<linearGradient id="paint2_linear_40000002_1412" x1="14.3593" y1="2.21509" x2="29.6024" y2="12.3164" gradientUnits="userSpaceOnUse">
<stop stop-color="#66636E"/>
<stop offset="0.2581" stop-color="#9A97A2"/>
<stop offset="1" stop-color="#343238"/>
</linearGradient>
<linearGradient id="paint3_linear_40000002_1412" x1="15.5251" y1="7.74876" x2="29.7748" y2="14.6782" gradientUnits="userSpaceOnUse">
<stop stop-color="#66636E"/>
<stop offset="1" stop-color="#343238"/>
</linearGradient>
</defs>
</svg>
