<svg width="358" height="302" viewBox="0 0 358 302" fill="none" xmlns="http://www.w3.org/2000/svg">
<path d="M4.5918 130.48L118.243 114.319L271.5 140.855L162.154 164.837L4.5918 130.48Z" fill="#4F382F"/>
<path d="M119.709 111.959L0 127.808L162.626 162.247L272.219 139.578L119.709 111.959ZM17.476 128.647L118.243 114.317L256.467 139.578L162.626 157.313L17.476 128.647Z" fill="#FBFF01"/>
<path d="M253.21 0.927613C255.169 0.442497 257.198 0.302631 259.216 0.275762C262.214 0.235275 265.263 0.44912 268.079 1.47788C270.895 2.50627 273.478 4.43166 274.796 7.12483C276.092 9.77015 276.062 12.8479 275.93 15.7903C275.913 16.1613 275.888 16.5544 275.674 16.8569C275.349 17.3167 274.716 17.4094 274.156 17.4628C272.044 17.6634 269.932 17.8636 267.82 18.0639C267.405 15.4601 268.909 12.6201 267.749 10.2523C266.726 8.1635 264.108 7.47227 261.791 7.26726C259.38 7.05341 256.881 7.127 254.643 8.05049C252.406 8.97434 250.464 10.8732 250.001 13.2484C249.832 14.1134 249.803 15.1208 249.115 15.6706C248.644 16.0472 247.994 16.0866 247.391 16.0947C233.544 16.2865 246.332 2.63104 253.21 0.927613Z" fill="#C6923E"/>
<path d="M181.925 11.8873L118.243 114.319L271.5 140.855L340.875 17.5924L181.925 11.8873Z" fill="#4F382F"/>
<path d="M340.875 17.5924L357.999 74.0356L322.172 137.103L272.219 139.578L340.875 17.5924Z" fill="#705143"/>
<path d="M184.737 17.5692L197.756 60.4796L166.477 115.541L128.575 110.014L184.737 17.5692Z" fill="#705143"/>
<path opacity="0.44" d="M336.203 17.5924L267.547 139.578L317.5 137.103L353.328 74.0356L336.203 17.5924ZM314.468 127.636L284.441 130.104L333.917 38.5716L344.495 70.9873L314.468 127.636Z" fill="#4F382F"/>
<path d="M340.875 17.5924L272.219 139.578L322.172 137.103L358 74.0356L340.875 17.5924ZM319.14 127.636L289.113 130.104L338.589 38.5716L349.167 70.9873L319.14 127.636Z" fill="#C6923E"/>
<path d="M181.925 11.8873L118.243 114.317L271.5 140.855L340.875 17.5924L181.925 11.8873ZM268.917 130.48L128.575 110.014L185.401 17.592L327.895 22.6228L268.917 130.48Z" fill="#FBFF01"/>
<path d="M197.756 60.4796L303.872 66.555L268.918 130.48L166.477 115.541L197.756 60.4796Z" fill="#936C58"/>
<path d="M247.921 0.927613C249.88 0.442497 251.909 0.302631 253.927 0.275762C256.926 0.235275 259.974 0.44912 262.79 1.47788C265.606 2.50627 268.189 4.43166 269.507 7.12483C270.803 9.77015 270.773 12.8479 270.641 15.7903C270.624 16.1613 270.599 16.5544 270.385 16.8569C270.06 17.3167 269.428 17.4094 268.867 17.4628C266.755 17.6634 264.643 17.8636 262.531 18.0639C262.116 15.4601 263.621 12.6201 262.46 10.2523C261.437 8.1635 258.819 7.47227 256.502 7.26726C254.091 7.05341 251.592 7.127 249.355 8.05049C247.117 8.97434 245.175 10.8732 244.712 13.2484C244.543 14.1134 244.514 15.1208 243.826 15.6706C243.355 16.0472 242.705 16.0866 242.102 16.0947C237.386 16.1602 235.817 15.9578 235.924 13.8255C236.314 6.04637 243.386 2.05096 247.921 0.927613Z" fill="#FBFF01"/>
<path d="M9.4707 227.109L13.3645 224.475V142.047L9.4707 141.143V227.109Z" fill="#C6923E"/>
<path opacity="0.44" d="M9.51051 134.857C9.51051 136.936 8.15379 138.622 6.48017 138.622C4.80656 138.622 3.4502 136.937 3.4502 134.857C3.4502 132.778 4.80692 131.093 6.48017 131.093C8.15342 131.093 9.51051 132.779 9.51051 134.857Z" fill="#4F382F"/>
<path d="M8.38746 134.244C8.38746 136.323 7.03074 138.008 5.35712 138.008C3.68388 138.008 2.32715 136.323 2.32715 134.244C2.32715 132.165 3.68388 130.479 5.35712 130.479C7.03074 130.48 8.38746 132.165 8.38746 134.244Z" fill="#FBFF01"/>
<path d="M3.46431 132.652C3.26371 133.014 3.13266 133.429 3.1794 133.841C3.22578 134.252 3.47533 134.655 3.85996 134.807C3.95861 134.846 4.06643 134.868 4.17133 134.852C4.47315 134.806 4.63254 134.483 4.81289 134.237C5.0319 133.937 5.34658 133.709 5.69919 133.593C5.91157 133.523 6.14898 133.486 6.30836 133.329C6.45559 133.184 6.50307 132.959 6.47141 132.755C6.43976 132.55 6.33783 132.364 6.22115 132.193C5.44931 131.067 4.02156 131.646 3.46431 132.652Z" fill="white"/>
<path opacity="0.44" d="M10.0716 229.692C10.0716 231.771 8.71494 233.457 7.04169 233.457C5.36845 233.457 4.01172 231.771 4.01172 229.692C4.01172 227.613 5.36845 225.927 7.04169 225.927C8.71494 225.927 10.0716 227.613 10.0716 229.692Z" fill="#4F382F"/>
<path d="M8.94898 229.079C8.94898 231.157 7.59226 232.843 5.91865 232.843C4.2454 232.843 2.88867 231.158 2.88867 229.079C2.88867 226.999 4.2454 225.314 5.91865 225.314C7.59226 225.314 8.94898 226.999 8.94898 229.079Z" fill="#FBFF01"/>
<path d="M4.02481 227.487C3.82421 227.849 3.69321 228.263 3.73995 228.675C3.78633 229.086 4.03588 229.489 4.42051 229.641C4.51916 229.68 4.62698 229.703 4.73188 229.687C5.0337 229.64 5.19309 229.317 5.37344 229.071C5.59244 228.772 5.90713 228.543 6.25974 228.427C6.47212 228.357 6.70953 228.32 6.86891 228.164C7.01614 228.018 7.06362 227.793 7.03196 227.589C7.00031 227.385 6.89833 227.198 6.78165 227.028C6.01018 225.901 4.58207 226.481 4.02481 227.487Z" fill="white"/>
<path opacity="0.44" d="M169.356 295.599C171.482 295.599 173.206 293.457 173.206 290.814C173.206 288.172 171.482 286.03 169.356 286.03C167.229 286.03 165.505 288.172 165.505 290.814C165.505 293.457 167.229 295.599 169.356 295.599Z" fill="#4F382F"/>
<path d="M167.929 294.819C170.056 294.819 171.78 292.677 171.78 290.035C171.78 287.393 170.056 285.251 167.929 285.251C165.802 285.251 164.078 287.393 164.078 290.035C164.078 292.677 165.802 294.819 167.929 294.819Z" fill="#FBFF01"/>
<path d="M165.523 288.012C165.268 288.472 165.101 288.999 165.16 289.522C165.22 290.045 165.536 290.557 166.025 290.75C166.151 290.8 166.288 290.829 166.421 290.808C166.805 290.749 167.007 290.339 167.236 290.026C167.515 289.645 167.915 289.355 168.363 289.207C168.632 289.118 168.934 289.072 169.137 288.872C169.324 288.688 169.384 288.402 169.344 288.143C169.303 287.883 169.174 287.646 169.026 287.429C168.046 285.997 166.231 286.733 165.523 288.012Z" fill="white"/>
<path opacity="0.44" d="M156.518 295.989C158.644 295.989 160.368 293.847 160.368 291.204C160.368 288.562 158.644 286.42 156.518 286.42C154.391 286.42 152.667 288.562 152.667 291.204C152.667 293.847 154.391 295.989 156.518 295.989Z" fill="#4F382F"/>
<path d="M158.942 290.425C158.942 293.067 157.218 295.209 155.091 295.209C152.964 295.209 151.24 293.067 151.24 290.425C151.24 287.783 152.964 285.64 155.091 285.64C157.218 285.64 158.942 287.783 158.942 290.425Z" fill="#FBFF01"/>
<path d="M152.685 288.402C152.43 288.862 152.263 289.39 152.323 289.912C152.382 290.435 152.698 290.947 153.187 291.14C153.313 291.19 153.45 291.218 153.583 291.198C153.967 291.139 154.169 290.729 154.398 290.416C154.677 290.035 155.077 289.745 155.525 289.597C155.795 289.508 156.096 289.462 156.299 289.262C156.486 289.078 156.546 288.792 156.506 288.533C156.466 288.273 156.336 288.036 156.188 287.819C155.208 286.386 153.393 287.123 152.685 288.402Z" fill="white"/>
<path d="M4.39551 130.48V224.909L161.957 295.989V164.837L4.39551 130.48Z" fill="#936C58"/>
<path d="M164.373 164.605L271.501 140.213L274.944 247.382L162.154 295.346L164.373 164.605Z" fill="#705143"/>
<path opacity="0.44" d="M174.592 192.391C176.141 193.227 178.231 192.897 179.447 191.623C180.662 190.351 180.896 188.247 179.991 186.739C183.94 187.922 188.243 187.897 192.179 186.668C190.756 183.222 188.076 180.311 184.759 178.608C186.276 178.715 187.672 177.422 187.954 175.928C188.237 174.434 187.564 172.87 186.484 171.8C185.403 170.73 183.963 170.095 182.502 169.675C179.344 168.768 175.677 168.864 173.09 170.889C170.626 172.817 169.608 176.153 169.726 179.279C169.854 182.703 171.151 190.534 174.592 192.391Z" fill="#4F382F"/>
<path opacity="0.44" d="M172.474 258.335C173.139 256.082 174.697 253.549 177.04 253.702C179.114 253.837 180.407 256.063 180.778 258.108C182.887 254.833 186.11 252.29 189.787 251.002C190.489 254.594 190.079 258.395 188.626 261.753C190.371 260.95 192.556 260.408 194.107 261.541C195.473 262.54 195.781 264.477 195.542 266.152C194.991 270.013 192.247 273.201 189.249 275.695C186.338 278.116 182.97 280.154 179.231 280.746C177.983 280.943 176.675 280.971 175.488 280.538C173.443 279.791 172.08 277.765 171.547 275.654C170.887 273.04 171.516 270.673 171.586 268.089C171.679 264.708 171.496 261.65 172.474 258.335Z" fill="#4F382F"/>
<path d="M174.592 191.081C176.141 191.917 178.231 191.586 179.447 190.313C180.662 189.04 180.896 186.938 179.991 185.429C183.94 186.612 188.243 186.587 192.179 185.358C190.756 181.912 188.076 179.001 184.759 177.298C186.276 177.404 187.672 176.112 187.954 174.618C188.237 173.124 187.564 171.56 186.484 170.49C185.403 169.42 183.963 168.785 182.502 168.365C179.344 167.457 175.677 167.554 173.09 169.578C170.626 171.507 169.608 174.842 169.726 177.969C169.854 181.393 171.151 189.224 174.592 191.081Z" fill="#BA863C"/>
<path d="M169.99 258.335C170.654 256.082 172.212 253.549 174.555 253.702C176.63 253.837 177.922 256.063 178.293 258.108C180.402 254.833 183.626 252.29 187.302 251.002C188.005 254.594 187.594 258.395 186.142 261.753C187.886 260.95 190.071 260.408 191.623 261.541C192.989 262.54 193.296 264.477 193.057 266.152C192.506 270.013 189.762 273.201 186.764 275.695C183.854 278.116 180.486 280.154 176.747 280.746C175.499 280.943 174.19 280.971 173.004 280.538C170.958 279.791 169.595 277.765 169.062 275.654C168.402 273.04 169.032 270.673 169.102 268.089C169.194 264.708 169.012 261.65 169.99 258.335Z" fill="#BA863C"/>
<path opacity="0.44" d="M258.534 245.899C256.601 246.691 254.543 247.36 252.46 247.188C250.377 247.017 248.261 245.827 247.543 243.865C246.825 241.902 248.044 239.306 250.12 239.06C246.254 237.916 242.865 235.24 240.854 231.747C244.679 230.772 248.812 231.05 252.471 232.528C250.546 230.839 250.51 227.571 252.13 225.589C253.751 223.606 256.645 222.929 259.117 223.597C261.589 224.266 263.63 226.109 264.954 228.3C267.174 231.975 267.487 236.735 265.767 240.668C264.048 244.602 260.342 247.605 256.137 248.471C255.618 248.578 254.805 248.282 255.071 247.824L258.534 245.899Z" fill="#4F382F"/>
<path opacity="0.44" d="M252.05 151.932C249.807 152.206 247.631 153.011 245.751 154.262C244.017 155.416 242.442 157.153 242.376 159.234C242.311 161.315 244.486 163.409 246.406 162.604C244.085 166.133 243.066 170.498 243.586 174.69C248.034 173.943 252.12 171.25 254.562 167.457C254.263 168.93 255.407 170.448 256.853 170.854C258.3 171.261 259.892 170.717 261.037 169.743C262.181 168.77 262.938 167.419 263.53 166.038C264.649 163.434 265.267 160.615 265.341 157.781C265.379 156.331 265.263 154.829 264.598 153.539C263.304 151.029 260.25 149.93 257.429 149.817C254.328 149.693 251.196 150.504 248.545 152.117L252.05 151.932Z" fill="#4F382F"/>
<path d="M253.095 149.526C250.852 149.8 248.677 150.605 246.795 151.856C245.062 153.01 243.487 154.747 243.421 156.828C243.355 158.909 245.53 161.003 247.451 160.198C245.13 163.727 244.111 168.093 244.63 172.285C249.079 171.537 253.165 168.844 255.607 165.051C255.308 166.524 256.451 168.042 257.898 168.448C259.344 168.855 260.937 168.311 262.081 167.337C263.226 166.364 263.982 165.013 264.575 163.632C265.694 161.028 266.312 158.209 266.386 155.375C266.424 153.925 266.308 152.422 265.643 151.133C264.349 148.623 261.295 147.524 258.474 147.411C255.373 147.287 252.241 148.098 249.59 149.711L253.095 149.526Z" fill="#BA863C"/>
<path d="M259.579 244.865C257.645 245.658 255.588 246.326 253.505 246.155C251.422 245.983 249.306 244.794 248.588 242.831C247.869 240.869 249.089 238.272 251.164 238.026C247.299 236.882 243.91 234.207 241.899 230.713C245.724 229.738 249.857 230.016 253.516 231.495C251.591 229.806 251.555 226.537 253.175 224.555C254.796 222.573 257.69 221.895 260.162 222.564C262.634 223.232 264.675 225.075 265.998 227.267C268.219 230.941 268.532 235.702 266.812 239.636C265.093 243.57 261.387 246.573 257.181 247.438C256.663 247.545 255.85 247.249 256.115 246.791L259.579 244.865Z" fill="#BA863C"/>
<path opacity="0.44" d="M20.6984 210.316C22.3841 211.531 22.6363 212.327 23.1703 214.335C26.8201 211.941 29.8258 211.154 34.179 210.829C33.8823 214.275 32.5385 217.91 30.0533 220.416C31.9282 220.333 32.5572 219.983 34.1352 220.999C36.0108 222.206 36.7448 224.589 36.9652 226.809C37.281 229.99 36.7518 233.407 34.7259 235.879C34.4285 236.242 34.0755 236.597 33.6198 236.708C33.3066 236.785 32.9783 236.737 32.6599 236.687C26.4793 235.723 20.3943 234.148 14.5225 231.992C13.4437 231.596 12.3133 231.137 11.6302 230.213C10.9839 229.339 10.8507 228.199 10.7391 227.118C10.3365 223.215 9.1531 217.089 11.434 213.562C13.2851 210.699 17.4745 207.994 20.6984 210.316Z" fill="#4F382F"/>
<path opacity="0.44" d="M129.458 261.534C127.617 258.165 126.87 254.209 127.356 250.401C131.548 249.641 136.079 251.117 139.018 254.199C138.812 250.864 142.355 247.861 145.612 248.609C149.158 249.424 150.898 253.407 151.675 256.96C152.525 260.845 152.868 264.822 153.095 268.793C153.222 271.012 153.298 273.32 152.429 275.365C149.208 282.94 139.024 280.77 133.988 276.615C130.852 274.026 122.529 264.371 129.458 261.534Z" fill="#4F382F"/>
<path opacity="0.44" d="M130.977 174.374C129.49 177.279 130.819 181.469 133.93 182.455C130.901 184.387 128.406 187.15 126.794 190.362C130.755 190.966 134.904 190.276 138.457 188.422C138.488 191.139 140.304 193.751 142.841 194.725C145.379 195.7 148.477 194.976 150.319 192.977C151.836 191.331 152.449 189.063 152.922 186.875C153.858 182.538 154.327 177.611 151.712 174.027C147.837 168.717 134.244 167.993 130.977 174.374Z" fill="#4F382F"/>
<path opacity="0.44" d="M20.5193 164.581C22.8157 164.426 24.8637 162.485 25.1419 160.201C27.2731 162.433 29.695 164.387 32.327 165.999C32.1964 163.101 31.659 160.221 30.7351 157.471C33.7691 157.042 36.0747 153.761 35.4505 150.761C35.3967 150.503 35.318 150.236 35.1299 150.053C34.9337 149.861 34.6521 149.791 34.3845 149.729C28.0088 148.24 21.6331 146.752 15.2574 145.263C14.9011 150.023 11.9871 165.157 20.5193 164.581Z" fill="#4F382F"/>
<path d="M19.2027 210.316C20.8884 211.531 21.1402 212.327 21.6746 214.335C25.3244 211.941 28.3301 211.154 32.6832 210.829C32.3866 214.275 31.0427 217.91 28.5575 220.416C30.4325 220.333 31.0611 219.983 32.6391 220.999C34.5147 222.206 35.249 224.589 35.4691 226.809C35.7849 229.99 35.2557 233.407 33.2298 235.879C32.9324 236.242 32.5794 236.597 32.1241 236.708C31.8109 236.785 31.4822 236.737 31.1639 236.687C24.9832 235.723 18.8982 234.148 13.0264 231.992C11.948 231.596 10.8173 231.137 10.1342 230.213C9.48745 229.339 9.35421 228.199 9.24305 227.118C8.84038 223.215 7.65701 217.089 9.93794 213.562C11.7893 210.699 15.9787 207.994 19.2027 210.316Z" fill="#C9943F"/>
<path d="M131.629 261.534C129.788 258.165 129.041 254.209 129.527 250.401C133.718 249.641 138.249 251.117 141.188 254.199C140.983 250.864 144.525 247.861 147.783 248.609C151.328 249.424 153.069 253.407 153.846 256.96C154.696 260.845 155.039 264.822 155.266 268.793C155.393 271.012 155.469 273.32 154.6 275.365C151.378 282.94 141.195 280.77 136.159 276.615C133.023 274.026 124.7 264.371 131.629 261.534Z" fill="#C9943F"/>
<path d="M131.967 172.384C130.48 175.288 131.809 179.479 134.92 180.465C131.891 182.397 129.397 185.16 127.784 188.371C131.746 188.975 135.894 188.285 139.447 186.431C139.478 189.149 141.295 191.76 143.832 192.735C146.369 193.71 149.467 192.985 151.309 190.986C152.827 189.34 153.44 187.073 153.912 184.884C154.848 180.547 155.318 175.62 152.702 172.036C148.827 166.727 135.234 166.003 131.967 172.384Z" fill="#C9943F"/>
<path d="M18.5047 161.293C20.8011 161.138 22.8487 159.197 23.1269 156.913C25.2584 159.145 27.6799 161.099 30.312 162.711C30.1813 159.813 29.6436 156.933 28.7201 154.183C31.7541 153.754 34.0601 150.473 33.4359 147.473C33.3821 147.215 33.3034 146.949 33.1153 146.765C32.9187 146.573 32.6371 146.503 32.3699 146.441C25.9942 144.952 19.6181 143.464 13.2428 141.976C12.8865 146.734 9.97245 161.869 18.5047 161.293Z" fill="#C9943F"/>
<path d="M272.219 139.578L162.626 162.248L162.154 301.729L274.945 251.504L272.219 139.578ZM264.613 244.616L173.921 283.074V172.866L262.342 151.321L264.613 244.616Z" fill="#C6923E"/>
<path d="M13.3645 224.475L149.813 276.693V283.074L9.4707 227.109L13.3645 224.475Z" fill="#FBFF01"/>
<path d="M264.613 244.616L262.342 151.321L258.773 152.19L261.693 242.425L264.613 244.616Z" fill="#E5AC45"/>
<path d="M173.921 277.159L261.693 242.424L264.613 244.616L173.921 283.074V277.159Z" fill="#FBFF01"/>
<path opacity="0.44" d="M60.8031 179.61C58.2148 182.757 51.6426 183.928 48.1742 181.79C48.0737 185.839 51.2108 190.379 54.4185 192.852C56.2692 194.279 59.7217 194.849 62.039 195.15C64.3564 195.452 66.9094 194.703 68.315 192.836C67.2123 197.185 68.0997 201.848 69.9165 205.951C71.7333 210.053 72.5964 214.82 75.2708 218.422C82.5086 214.676 87.5092 206.396 85.9187 198.403C87.2931 202.491 92.2587 203.965 96.5493 204.405C100.84 204.846 105.291 202.585 107.467 198.861C103.461 196.984 99.1483 194.81 97.2884 190.796C96.0322 188.084 96.122 184.968 96.2358 181.981C96.4835 175.496 97.3974 167.527 97.6455 161.041C97.6668 160.459 74.7909 158.13 72.6793 157.712C70.748 157.329 63.4451 154.792 62.2017 156.419C61.039 157.94 63.3914 176.464 60.8031 179.61Z" fill="#4F382F"/>
<path d="M58.7994 176.468C56.0646 179.489 51.1391 180.736 47.7764 178.436C47.4842 182.476 50.0805 186.2 53.1672 188.822C54.9483 190.334 56.9973 191.639 59.2977 192.05C61.5982 192.461 64.1839 191.834 65.676 190.035C64.3686 194.327 65.0341 199.027 66.6543 203.211C68.2746 207.395 70.7959 211.159 73.2969 214.885C80.704 211.486 85.3487 202.899 84.1388 194.839C85.3181 198.988 89.0654 202.286 93.3302 202.929C97.5951 203.572 102.148 201.526 104.499 197.909C100.586 195.844 96.3812 193.468 94.7138 189.37C93.5875 186.601 93.8246 183.493 94.08 180.515C94.6347 174.049 95.1898 167.582 95.7444 161.115C95.7934 160.535 73.7894 155.674 71.6999 155.157C69.7892 154.684 62.6144 151.803 61.2953 153.369C60.0615 154.833 61.5338 173.448 58.7994 176.468Z" fill="#E5AC45"/>
<path opacity="0.44" d="M19.0141 226.637V148.685L149.813 184.126V173.727L13.3643 142.047V224.475L19.0141 226.637Z" fill="#4F382F"/>
<path opacity="0.44" d="M23.9057 151.569C23.9057 153.037 22.9479 154.226 21.7668 154.226C20.5857 154.226 19.6279 153.037 19.6279 151.569C19.6279 150.102 20.5857 148.912 21.7668 148.912C22.9479 148.912 23.9057 150.102 23.9057 151.569Z" fill="#4F382F"/>
<path d="M23.1127 151.136C23.1127 152.604 22.1549 153.793 20.9738 153.793C19.7926 153.793 18.835 152.604 18.835 151.136C18.835 149.669 19.7923 148.479 20.9738 148.479C22.1553 148.479 23.1127 149.669 23.1127 151.136Z" fill="#FBFF01"/>
<path d="M19.6382 150.013C19.4969 150.268 19.4045 150.561 19.4373 150.851C19.47 151.142 19.6459 151.426 19.9176 151.534C19.9872 151.561 20.0634 151.577 20.1373 151.566C20.3505 151.532 20.4627 151.305 20.5901 151.131C20.7446 150.92 20.9666 150.758 21.2158 150.676C21.3656 150.627 21.5331 150.601 21.6457 150.49C21.7495 150.388 21.783 150.229 21.7609 150.085C21.7385 149.94 21.6667 149.809 21.5842 149.689C21.0395 148.893 20.0317 149.303 19.6382 150.013Z" fill="white"/>
<path opacity="0.44" d="M25.5434 220.87C25.5434 222.337 24.5856 223.527 23.4045 223.527C22.2234 223.527 21.2656 222.337 21.2656 220.87C21.2656 219.402 22.2234 218.213 23.4045 218.213C24.5856 218.213 25.5434 219.402 25.5434 220.87Z" fill="#4F382F"/>
<path d="M24.7504 220.437C24.7504 221.904 23.7926 223.094 22.6115 223.094C21.4303 223.094 20.4727 221.904 20.4727 220.437C20.4727 218.969 21.4303 217.78 22.6115 217.78C23.7926 217.78 24.7504 218.969 24.7504 220.437Z" fill="#FBFF01"/>
<path d="M21.2753 219.313C21.1336 219.569 21.0412 219.861 21.074 220.152C21.1068 220.442 21.2827 220.726 21.5543 220.834C21.6239 220.861 21.7001 220.877 21.7741 220.866C21.9872 220.833 22.0994 220.606 22.2268 220.431C22.3814 220.22 22.6033 220.059 22.8525 219.977C23.0023 219.928 23.1698 219.902 23.2824 219.791C23.3862 219.689 23.4201 219.53 23.3976 219.385C23.3752 219.241 23.3034 219.109 23.221 218.989C22.6762 218.194 21.6684 218.603 21.2753 219.313Z" fill="white"/>
<path opacity="0.44" d="M144.044 264.771C144.044 266.979 142.603 268.77 140.826 268.77C139.047 268.77 137.606 266.979 137.606 264.771C137.606 262.562 139.048 260.771 140.826 260.771C142.603 260.771 144.044 262.562 144.044 264.771Z" fill="#4F382F"/>
<path d="M142.851 264.119C142.851 266.327 141.41 268.118 139.632 268.118C137.854 268.118 136.413 266.327 136.413 264.119C136.413 261.91 137.854 260.119 139.632 260.119C141.41 260.119 142.851 261.91 142.851 264.119Z" fill="#FBFF01"/>
<path d="M137.621 262.428C137.408 262.813 137.269 263.253 137.319 263.69C137.368 264.127 137.633 264.555 138.041 264.717C138.146 264.758 138.261 264.782 138.372 264.765C138.693 264.715 138.862 264.373 139.054 264.111C139.286 263.793 139.62 263.55 139.995 263.427C140.221 263.353 140.473 263.314 140.642 263.147C140.799 262.993 140.849 262.754 140.816 262.537C140.782 262.32 140.674 262.122 140.55 261.941C139.73 260.743 138.213 261.359 137.621 262.428Z" fill="white"/>
<path opacity="0.44" d="M143.822 185.639C145.6 185.639 147.041 183.849 147.041 181.64C147.041 179.432 145.6 177.641 143.822 177.641C142.044 177.641 140.603 179.432 140.603 181.64C140.603 183.849 142.044 185.639 143.822 185.639Z" fill="#4F382F"/>
<path d="M142.629 184.987C144.407 184.987 145.848 183.197 145.848 180.988C145.848 178.779 144.407 176.989 142.629 176.989C140.851 176.989 139.41 178.779 139.41 180.988C139.41 183.197 140.851 184.987 142.629 184.987Z" fill="#FBFF01"/>
<path d="M140.618 179.298C140.406 179.682 140.266 180.123 140.316 180.56C140.365 180.997 140.63 181.425 141.039 181.586C141.144 181.628 141.258 181.652 141.369 181.635C141.69 181.585 141.859 181.243 142.051 180.981C142.283 180.663 142.618 180.42 142.992 180.297C143.218 180.223 143.47 180.184 143.639 180.017C143.796 179.863 143.847 179.624 143.813 179.407C143.779 179.19 143.671 178.992 143.547 178.81C142.727 177.613 141.21 178.229 140.618 179.298Z" fill="white"/>
<path opacity="0.44" d="M183.432 178.482C183.432 180.691 181.991 182.481 180.213 182.481C178.435 182.481 176.994 180.691 176.994 178.482C176.994 176.273 178.436 174.483 180.213 174.483C181.991 174.483 183.432 176.273 183.432 178.482Z" fill="#4F382F"/>
<path d="M182.239 177.83C182.239 180.038 180.797 181.829 179.02 181.829C177.242 181.829 175.801 180.038 175.801 177.83C175.801 175.621 177.242 173.831 179.02 173.831C180.797 173.831 182.239 175.621 182.239 177.83Z" fill="#E5AC45"/>
<path d="M177.008 176.139C176.795 176.524 176.656 176.965 176.705 177.402C176.755 177.839 177.02 178.266 177.428 178.428C177.533 178.47 177.648 178.494 177.759 178.476C178.08 178.427 178.249 178.085 178.44 177.823C178.673 177.505 179.008 177.262 179.382 177.139C179.607 177.064 179.86 177.025 180.029 176.859C180.185 176.704 180.236 176.465 180.202 176.249C180.168 176.032 180.06 175.833 179.936 175.652C179.117 174.454 177.6 175.07 177.008 176.139Z" fill="#FBFF01"/>
<path opacity="0.44" d="M181.544 270.268C183.322 270.268 184.763 268.478 184.763 266.269C184.763 264.061 183.322 262.27 181.544 262.27C179.766 262.27 178.325 264.061 178.325 266.269C178.325 268.478 179.766 270.268 181.544 270.268Z" fill="#4F382F"/>
<path d="M183.57 265.617C183.57 267.826 182.129 269.616 180.351 269.616C178.573 269.616 177.132 267.826 177.132 265.617C177.132 263.409 178.573 261.618 180.351 261.618C182.129 261.618 183.57 263.409 183.57 265.617Z" fill="#E5AC45"/>
<path d="M178.339 263.926C178.126 264.311 177.987 264.752 178.036 265.189C178.086 265.626 178.351 266.053 178.76 266.215C178.865 266.256 178.979 266.281 179.09 266.263C179.411 266.214 179.58 265.871 179.772 265.61C180.004 265.291 180.339 265.049 180.713 264.925C180.939 264.851 181.191 264.812 181.36 264.645C181.517 264.491 181.567 264.253 181.534 264.035C181.5 263.819 181.392 263.62 181.268 263.439C180.448 262.241 178.931 262.858 178.339 263.926Z" fill="#FBFF01"/>
<path opacity="0.44" d="M256.732 160.143C256.732 162.185 255.4 163.841 253.756 163.841C252.112 163.841 250.779 162.185 250.779 160.143C250.779 158.101 252.112 156.445 253.756 156.445C255.4 156.445 256.732 158.101 256.732 160.143Z" fill="#4F382F"/>
<path d="M252.652 163.238C254.296 163.238 255.629 161.583 255.629 159.54C255.629 157.498 254.296 155.842 252.652 155.842C251.008 155.842 249.676 157.498 249.676 159.54C249.676 161.583 251.008 163.238 252.652 163.238Z" fill="#E5AC45"/>
<path d="M250.792 157.977C250.595 158.333 250.466 158.74 250.512 159.144C250.558 159.548 250.803 159.944 251.181 160.093C251.278 160.131 251.383 160.153 251.486 160.138C251.783 160.092 251.939 159.775 252.117 159.533C252.332 159.238 252.641 159.014 252.987 158.9C253.196 158.831 253.429 158.796 253.585 158.641C253.73 158.499 253.777 158.278 253.746 158.077C253.714 157.877 253.615 157.693 253.5 157.526C252.742 156.419 251.339 156.988 250.792 157.977Z" fill="#FBFF01"/>
<path opacity="0.44" d="M259.995 237.049C259.995 239.092 258.663 240.747 257.019 240.747C255.375 240.747 254.042 239.092 254.042 237.049C254.042 235.007 255.375 233.352 257.019 233.352C258.663 233.352 259.995 235.007 259.995 237.049Z" fill="#4F382F"/>
<path d="M258.892 236.447C258.892 238.489 257.56 240.144 255.916 240.144C254.272 240.144 252.939 238.489 252.939 236.447C252.939 234.404 254.272 232.749 255.916 232.749C257.56 232.749 258.892 234.404 258.892 236.447Z" fill="#E5AC45"/>
<path d="M254.056 234.883C253.859 235.239 253.73 235.646 253.776 236.05C253.821 236.454 254.066 236.85 254.444 236.999C254.541 237.038 254.647 237.06 254.75 237.044C255.047 236.998 255.203 236.682 255.38 236.439C255.595 236.145 255.904 235.92 256.251 235.807C256.459 235.738 256.692 235.702 256.849 235.548C256.993 235.405 257.041 235.184 257.009 234.984C256.978 234.783 256.878 234.6 256.763 234.432C256.006 233.325 254.603 233.895 254.056 234.883Z" fill="#FBFF01"/>
<path opacity="0.44" d="M79.3981 198.899C79.3981 202.261 77.2048 204.986 74.4983 204.986C71.7919 204.986 69.5986 202.261 69.5986 198.899C69.5986 195.537 71.7919 192.812 74.4983 192.812C77.2048 192.812 79.3981 195.537 79.3981 198.899Z" fill="#4F382F"/>
<path d="M77.5827 197.907C77.5827 201.269 75.389 203.994 72.683 203.994C69.9769 203.994 67.7832 201.269 67.7832 197.907C67.7832 194.545 69.9765 191.82 72.683 191.82C75.389 191.82 77.5827 194.545 77.5827 197.907Z" fill="#FBFF01"/>
<path d="M69.6215 195.334C69.2976 195.919 69.0856 196.59 69.1607 197.255C69.2357 197.92 69.6391 198.571 70.2612 198.817C70.4209 198.881 70.595 198.917 70.7647 198.891C71.2531 198.815 71.5104 198.294 71.8019 197.895C72.156 197.411 72.665 197.041 73.2348 196.854C73.5786 196.741 73.9621 196.682 74.2198 196.428C74.4576 196.193 74.5349 195.83 74.4833 195.499C74.4318 195.17 74.2677 194.868 74.0788 194.591C72.8318 192.769 70.5225 193.707 69.6215 195.334Z" fill="white"/>
<path opacity="0.44" d="M170.07 173.858C172.196 173.858 173.92 171.716 173.92 169.074C173.92 166.432 172.196 164.29 170.07 164.29C167.943 164.29 166.219 166.432 166.219 169.074C166.219 171.716 167.943 173.858 170.07 173.858Z" fill="#4F382F"/>
<path d="M168.643 173.078C170.769 173.078 172.493 170.936 172.493 168.294C172.493 165.652 170.769 163.51 168.643 163.51C166.516 163.51 164.792 165.652 164.792 168.294C164.792 170.936 166.516 173.078 168.643 173.078Z" fill="#FBFF01"/>
<path d="M166.236 166.272C165.982 166.732 165.815 167.259 165.874 167.782C165.934 168.304 166.25 168.816 166.739 169.01C166.865 169.06 167.002 169.088 167.135 169.067C167.518 169.008 167.721 168.598 167.95 168.285C168.229 167.905 168.629 167.614 169.077 167.467C169.346 167.378 169.648 167.331 169.851 167.132C170.038 166.947 170.098 166.662 170.058 166.402C170.017 166.143 169.888 165.905 169.74 165.688C168.759 164.256 166.945 164.993 166.236 166.272Z" fill="white"/>
<path opacity="0.44" d="M270.662 249.819C272.382 249.819 273.777 248.086 273.777 245.949C273.777 243.811 272.382 242.079 270.662 242.079C268.942 242.079 267.547 243.811 267.547 245.949C267.547 248.086 268.942 249.819 270.662 249.819Z" fill="#4F382F"/>
<path d="M269.508 249.188C271.228 249.188 272.623 247.455 272.623 245.318C272.623 243.181 271.228 241.448 269.508 241.448C267.787 241.448 266.393 243.181 266.393 245.318C266.393 247.455 267.787 249.188 269.508 249.188Z" fill="#FBFF01"/>
<path d="M267.561 243.682C267.355 244.054 267.221 244.48 267.268 244.903C267.316 245.326 267.572 245.739 267.968 245.896C268.069 245.936 268.18 245.959 268.288 245.943C268.599 245.895 268.762 245.564 268.948 245.31C269.173 245.002 269.496 244.767 269.859 244.648C270.077 244.576 270.321 244.538 270.485 244.377C270.636 244.228 270.685 243.997 270.652 243.787C270.62 243.577 270.515 243.385 270.395 243.21C269.602 242.052 268.134 242.648 267.561 243.682Z" fill="white"/>
<path opacity="0.44" d="M268.124 150.417C269.844 150.417 271.239 148.684 271.239 146.547C271.239 144.41 269.844 142.677 268.124 142.677C266.403 142.677 265.009 144.41 265.009 146.547C265.009 148.684 266.403 150.417 268.124 150.417Z" fill="#4F382F"/>
<path d="M266.969 149.786C268.69 149.786 270.084 148.053 270.084 145.916C270.084 143.779 268.69 142.046 266.969 142.046C265.249 142.046 263.854 143.779 263.854 145.916C263.854 148.053 265.249 149.786 266.969 149.786Z" fill="#FBFF01"/>
<path d="M265.023 144.28C264.817 144.653 264.683 145.079 264.73 145.502C264.778 145.924 265.034 146.338 265.43 146.495C265.531 146.535 265.642 146.558 265.75 146.541C266.06 146.493 266.224 146.162 266.409 145.908C266.634 145.601 266.958 145.365 267.32 145.246C267.539 145.175 267.783 145.137 267.947 144.976C268.098 144.827 268.147 144.595 268.114 144.385C268.081 144.176 267.977 143.983 267.857 143.809C267.064 142.65 265.596 143.246 265.023 144.28Z" fill="white"/>
<path opacity="0.44" d="M173.921 182.945L254.818 160.883L256.468 244.616L261.693 242.424L258.774 152.19L173.921 172.866V182.945Z" fill="#4F382F"/>
<path d="M0 127.808L18.8357 128.916L162.626 157.313L256.467 139.578H272.219L162.626 162.247L0 127.808Z" fill="#FBFF01"/>
<path d="M0 127.808L1.84664 233.977L162.154 301.728L163.984 162.535L0 127.808ZM149.813 283.074L9.47085 227.109V141.142L149.813 173.727V283.074Z" fill="#E5AC45"/>
<path opacity="0.44" d="M158.941 169.464C158.941 172.106 157.217 174.248 155.09 174.248C152.963 174.248 151.239 172.106 151.239 169.464C151.239 166.822 152.963 164.68 155.09 164.68C157.217 164.68 158.941 166.822 158.941 169.464Z" fill="#4F382F"/>
<path d="M157.514 168.684C157.514 171.327 155.79 173.468 153.663 173.468C151.537 173.468 149.812 171.327 149.812 168.684C149.812 166.042 151.537 163.9 153.663 163.9C155.79 163.9 157.514 166.042 157.514 168.684Z" fill="#FBFF01"/>
<path d="M151.257 166.662C151.002 167.122 150.836 167.649 150.895 168.172C150.954 168.695 151.271 169.206 151.76 169.4C151.885 169.45 152.022 169.478 152.155 169.458C152.539 169.398 152.742 168.989 152.971 168.675C153.249 168.294 153.649 168.004 154.097 167.856C154.367 167.768 154.669 167.721 154.871 167.522C155.058 167.337 155.118 167.051 155.078 166.792C155.038 166.532 154.909 166.295 154.76 166.079C153.78 164.646 151.965 165.383 151.257 166.662Z" fill="white"/>
<path opacity="0.44" d="M159.218 286.81C159.218 289.452 157.494 291.594 155.367 291.594C153.241 291.594 151.517 289.452 151.517 286.81C151.517 284.168 153.241 282.026 155.367 282.026C157.494 282.026 159.218 284.168 159.218 286.81Z" fill="#4F382F"/>
<path d="M153.941 290.814C156.067 290.814 157.791 288.672 157.791 286.03C157.791 283.388 156.067 281.246 153.941 281.246C151.814 281.246 150.09 283.388 150.09 286.03C150.09 288.672 151.814 290.814 153.941 290.814Z" fill="#FBFF01"/>
<path d="M151.534 284.008C151.28 284.468 151.113 284.995 151.172 285.518C151.231 286.04 151.548 286.552 152.037 286.746C152.163 286.796 152.3 286.824 152.433 286.803C152.816 286.744 153.019 286.335 153.248 286.021C153.527 285.64 153.926 285.35 154.374 285.202C154.644 285.114 154.946 285.067 155.148 284.868C155.335 284.683 155.396 284.397 155.356 284.138C155.315 283.878 155.186 283.641 155.038 283.425C154.057 281.992 152.242 282.729 151.534 284.008Z" fill="white"/>
<path opacity="0.44" d="M169.344 292.926C171.471 292.926 173.195 290.784 173.195 288.142C173.195 285.5 171.471 283.358 169.344 283.358C167.217 283.358 165.493 285.5 165.493 288.142C165.493 290.784 167.217 292.926 169.344 292.926Z" fill="#4F382F"/>
<path d="M167.917 292.147C170.044 292.147 171.768 290.005 171.768 287.363C171.768 284.72 170.044 282.578 167.917 282.578C165.79 282.578 164.066 284.72 164.066 287.363C164.066 290.005 165.79 292.147 167.917 292.147Z" fill="#FBFF01"/>
<path d="M165.511 285.34C165.256 285.8 165.089 286.328 165.149 286.85C165.208 287.373 165.524 287.885 166.014 288.078C166.139 288.128 166.276 288.157 166.409 288.136C166.793 288.077 166.995 287.667 167.225 287.353C167.503 286.973 167.903 286.682 168.351 286.535C168.621 286.446 168.923 286.399 169.125 286.2C169.312 286.015 169.373 285.73 169.332 285.47C169.292 285.211 169.162 284.973 169.014 284.757C168.034 283.325 166.219 284.061 165.511 285.34Z" fill="white"/>
<path d="M59.3613 150.077V155.016C59.3613 155.016 61.8955 158.743 66.6197 159.712C71.3439 160.682 79.7542 161.39 84.8417 159.712C89.9296 158.036 92.4751 155.853 92.4751 155.853L92.8914 151.001L72.4341 153.926L73.6277 150.553L73.5357 145.222L67.831 145.915L59.3613 150.077Z" fill="#C9943F"/>
<path d="M67.3584 143.659C67.3584 143.659 59.3676 147.197 59.3613 150.077C59.3536 153.937 70.8576 156.215 77.3872 155.501C83.9168 154.786 92.8914 151.001 92.8914 151.001L85.9404 148.699C85.9404 148.699 80.4643 151.341 74.6307 150.675C68.7972 150.008 67.1306 149.084 68.4402 147.655C69.7498 146.227 73.5357 145.221 73.5357 145.221L67.3584 143.659Z" fill="#FBFF01"/>
<path d="M9.4707 141.143L13.3645 142.047V224.475L9.4707 227.109V141.143Z" fill="#C6923E"/>
</svg>
