<svg width="41" height="41" viewBox="0 0 41 41" fill="none" xmlns="http://www.w3.org/2000/svg">
<path d="M14.2913 25.5224L14.179 27.7896L16.1219 25.8322L16.8404 24.1219C16.9884 23.769 16.775 23.292 16.3636 23.056L14.2913 25.5224Z" fill="url(#paint0_linear_40000002_943)"/>
<path d="M14.1626 27.8057L15.4491 29.3171L17.3993 27.3523C17.0388 26.8108 16.61 26.2981 16.1218 25.8322L14.1626 27.8057Z" fill="url(#paint1_linear_40000002_943)"/>
<path d="M15.3447 29.3973L17.9494 29.8798L20.4095 27.8628C20.2661 27.4402 19.8143 27.1286 19.4011 27.1668L17.3994 27.3523L15.3447 29.3973Z" fill="url(#paint2_linear_40000002_943)"/>
<path d="M19.131 32.7499C19.131 32.7499 21.0014 30.9084 21.0934 30.804C21.2316 30.6476 21.2758 30.4118 21.1897 30.1584L20.4093 27.863C20.2659 27.4403 19.8142 27.1287 19.4009 27.1669L17.25 29.3494L19.131 32.7499Z" fill="url(#paint3_linear_40000002_943)"/>
<path d="M18.665 37.3405L20.4782 35.525L19.083 37.228L17.1372 39.1575L18.665 37.3405Z" fill="url(#paint4_linear_40000002_943)"/>
<path d="M12.3979 23.6924C11.757 23.5172 11.1256 23.4332 10.5207 23.4363L8.55127 25.3939L10.6093 25.9245L12.3979 23.6924Z" fill="url(#paint5_linear_40000002_943)"/>
<path d="M15.9314 32.2274L16.4299 35.0091L18.463 32.9352C18.6402 32.3715 18.7157 31.7798 18.6985 31.1786L15.9314 32.2274Z" fill="url(#paint6_linear_40000002_943)"/>
<path d="M16.478 34.9449L18.5281 37.453L20.4783 35.525C20.7163 35.2355 20.6115 34.749 20.2438 34.4391L18.4631 32.9351L16.478 34.9449Z" fill="url(#paint7_linear_40000002_943)"/>
<path d="M6.1353 25.8833L4.03094 25.1618C3.7677 25.0715 3.51961 25.1101 3.35365 25.2429C3.24625 25.3292 1.36377 27.2347 1.36377 27.2347L4.46702 28.0949L6.1353 25.8833Z" fill="url(#paint8_linear_40000002_943)"/>
<path d="M10.5208 23.4362L9.40579 21.478L7.41895 23.3895L8.55026 25.397L10.5208 23.4362Z" fill="url(#paint9_linear_40000002_943)"/>
<path d="M9.40567 21.478C9.262 21.2255 9.0172 21.0436 8.76309 20.9745C8.61098 20.9329 8.45496 20.9318 8.31546 20.9804L6.29515 21.683C6.21035 21.7123 6.13913 21.7579 6.08183 21.815C6.0452 21.8517 4.20947 23.6894 4.20947 23.6894L4.2258 23.9385L5.63258 24.5255L7.26448 23.5365L9.40567 21.478Z" fill="url(#paint10_linear_40000002_943)"/>
<path d="M11.5898 37.437L12.9565 40.5724C12.9565 40.5724 14.7334 38.7566 14.859 38.6467C14.9961 38.5274 15.0685 38.342 15.0432 38.1228L14.8036 36.0821L11.5898 37.437Z" fill="url(#paint11_linear_40000002_943)"/>
<path d="M14.8137 26.2137L16.8402 24.1218C16.9882 23.769 16.7748 23.292 16.3634 23.056L14.1278 21.7739C13.8439 21.6109 13.5395 21.6056 13.3299 21.7337C13.2355 21.7911 11.2522 23.8181 11.2522 23.8181L14.8137 26.2137Z" fill="url(#paint12_linear_40000002_943)"/>
<path d="M10.3844 35.2663C12.1673 35.2663 13.6593 34.0893 14.0476 32.5098C13.5414 32.7733 12.9034 32.8585 12.2046 32.7107C10.5103 32.3523 9.10318 30.7606 9.06201 29.1558C9.05394 28.8527 9.09535 28.5708 9.17954 28.3153C7.6923 28.7921 6.62158 30.1253 6.62158 31.6968C6.62158 31.7604 6.62344 31.8235 6.62717 31.886C6.85359 32.2666 7.1118 32.6335 7.3982 32.9807L7.09566 33.4314C7.73886 34.5256 8.97019 35.2663 10.3844 35.2663Z" fill="url(#paint13_linear_40000002_943)"/>
<path d="M1.22449 27.5411L0.953803 29.6998C0.903515 30.0971 1.21562 30.5399 1.64996 30.6888L3.75886 31.4119C3.87515 31.9962 4.07195 32.5793 4.34122 33.1444L2.8225 34.1805C2.5094 34.3943 2.50301 34.8649 2.80803 35.2314L4.46582 37.2226C4.77103 37.5893 5.27224 37.713 5.58534 37.4992L7.1061 36.4617C7.51624 36.7645 7.95642 37.0365 8.42323 37.2696C8.59478 37.3558 8.76781 37.4348 8.94015 37.5072L9.17955 39.5493C9.2286 39.9697 9.62073 40.3558 10.0553 40.4114L12.416 40.7132C12.8504 40.7689 13.1629 40.4731 13.1134 40.0524L12.8744 38.0117C13.4152 37.9115 13.9225 37.7354 14.3807 37.4877L16.1624 38.9922C16.5295 39.3022 17.02 39.3187 17.2575 39.029L18.549 37.4545C18.7868 37.1649 18.6819 36.6787 18.3145 36.3686L16.5336 34.8647C16.7108 34.3009 16.7863 33.7094 16.7689 33.1082L18.7723 32.9225C19.1853 32.8841 19.4037 32.5106 19.26 32.0879L18.4799 29.7925C18.3363 29.3697 17.8847 29.058 17.4715 29.0964L15.47 29.2819C15.1093 28.7402 14.6805 28.2275 14.1923 27.7616L14.9106 26.0513C15.0587 25.6985 14.8454 25.2214 14.4336 24.9853L12.1982 23.7032C11.7869 23.4672 11.333 23.5618 11.1853 23.9143L10.4682 25.6218C9.82778 25.4466 9.19601 25.3626 8.59068 25.3655L7.47613 23.4074C7.33228 23.155 7.08773 22.973 6.83361 22.904C6.68132 22.8622 6.52567 22.8614 6.38598 22.9098L4.36586 23.6125C3.99379 23.7417 3.87893 24.1742 4.10908 24.5784L5.22425 26.5374C4.81492 26.8889 4.46955 27.3155 4.20593 27.8127L2.10144 27.0914C1.66691 26.9424 1.2741 27.1437 1.22449 27.5411ZM7.25027 30.2609C7.70988 28.8329 9.40486 28.3366 11.0358 29.1522C12.667 29.9678 13.6169 31.7867 13.1573 33.2146C12.6977 34.6425 11.0027 35.1386 9.3714 34.3228C7.7403 33.5072 6.79046 31.6886 7.25027 30.2609Z" fill="url(#paint14_linear_40000002_943)"/>
<path d="M8.77664 35.0238C6.79645 33.8698 5.69369 31.5708 6.26711 29.7897C6.87759 27.8938 9.1363 27.2322 11.3023 28.3153C11.4074 28.3678 11.512 28.4245 11.614 28.4839C13.5946 29.6377 14.6969 31.937 14.1237 33.7181C13.8277 34.6364 13.1414 35.2958 12.1903 35.5741C11.2394 35.8524 10.1377 35.7171 9.0885 35.1922C8.98339 35.1397 8.87865 35.0831 8.77664 35.0238ZM11.5705 28.5854C11.4716 28.5277 11.3698 28.4726 11.2682 28.422C9.16921 27.3724 6.9804 28.0133 6.3888 29.8506C5.83295 31.5764 6.90118 33.8042 8.82054 34.9224C8.91925 34.98 9.02107 35.0351 9.12289 35.0859C10.1398 35.5944 11.2071 35.7258 12.1287 35.4561C13.0501 35.1861 13.7154 34.5473 14.0018 33.6573C14.5575 31.9315 13.4897 29.7034 11.5705 28.5854Z" fill="url(#paint15_linear_40000002_943)"/>
<path d="M22.4498 21.5379C23.256 22.1216 24.1127 22.6086 24.9934 22.9888L32.3807 18.8334C32.6046 18.0727 30.9657 13.9453 30.9657 13.9453C30.3749 13.0414 22.6702 11.0744 22.283 11.7908L17.2983 13.8002C17.474 14.7158 17.7848 15.6489 18.2366 16.5726L22.4498 21.5379ZM23.2649 16.006C21.7755 13.7036 22.2494 11.0951 24.3234 10.1797C26.3975 9.26436 29.2861 10.3887 30.7757 12.6909C32.2652 14.9933 31.7911 17.6017 29.7174 18.5171C27.643 19.4324 24.7546 18.3083 23.2649 16.006Z" fill="url(#paint16_linear_40000002_943)"/>
<path d="M24.4115 4.75644C23.5318 4.77475 22.682 4.91432 21.8902 5.17911L18.8257 8.23717L23.1513 8.97685L24.4115 4.75644Z" fill="url(#paint17_linear_40000002_943)"/>
<path d="M32.9416 8.29137C32.1376 7.53542 31.2713 6.89682 30.3722 6.37978L27.4602 9.29839L30.0488 11.2118L32.9416 8.29137Z" fill="url(#paint18_linear_40000002_943)"/>
<path d="M26.1738 5.23032L27.4037 9.35481L30.3722 6.37976L30.4987 3.40335C30.5245 2.78958 30.0117 2.14669 29.3533 1.96764L26.1738 5.23032Z" fill="url(#paint19_linear_40000002_943)"/>
<path d="M37.2046 7.79717C36.8209 7.20295 36.0752 6.91221 35.5398 7.14789L32.9415 8.2913L29.9043 11.3726L33.8597 10.858L37.2046 7.79717Z" fill="url(#paint20_linear_40000002_943)"/>
<path d="M33.313 16.5903L33.9721 19.2674L36.8932 16.2572C36.8531 15.4086 36.6926 14.5385 36.4158 13.6727L33.313 16.5903Z" fill="url(#paint21_linear_40000002_943)"/>
<path d="M40.8259 19.3327C40.9963 18.7736 40.6177 18.0687 39.9812 17.7591L36.8933 16.2572L33.8921 19.3158L37.7751 22.0411L40.8259 19.3327Z" fill="url(#paint22_linear_40000002_943)"/>
<path d="M29.1655 26.9045C29.4211 27.5363 30.905 30.1867 31.5122 30.0888C31.5122 30.0888 34.4296 27.201 34.5548 27.0547C34.7712 26.802 34.8265 26.4181 34.6647 26.0179L33.4252 22.9515L29.1655 26.9045Z" fill="url(#paint23_linear_40000002_943)"/>
<path d="M19.4868 2.63189C18.991 2.10647 18.2373 1.97646 17.8026 2.34109L15.4439 4.32172C15.3905 4.36611 15.3448 4.41609 15.3059 4.47048C15.2819 4.50413 12.4868 7.2443 12.4868 7.2443L14.1026 7.44937L19.4868 2.63189Z" fill="url(#paint24_linear_40000002_943)"/>
<path d="M17.1943 10.8774L14.0534 10.678C13.7496 10.6585 13.4937 10.7545 13.3194 10.9279C13.2615 10.9858 10.4966 13.7844 10.4966 13.7844L16.0437 14.4679L17.1943 10.8774Z" fill="url(#paint25_linear_40000002_943)"/>
<path d="M14.9827 5.23033L18.8658 8.197L21.89 5.17911L19.4867 2.63189C18.9909 2.10647 18.2372 1.97646 17.8024 2.34109L14.9827 5.23033Z" fill="url(#paint26_linear_40000002_943)"/>
<path d="M37.8637 21.6152L36.8828 25.5385C36.8828 25.5385 39.6812 22.7337 39.717 22.6951C39.7994 22.6066 39.8631 22.4982 39.9016 22.3713L40.826 19.3327C40.8867 19.1332 40.8777 18.9151 40.8119 18.7032C40.42 19.1066 37.8637 21.6152 37.8637 21.6152Z" fill="url(#paint27_linear_40000002_943)"/>
<path d="M32.71 10.0541L36.3357 15.296C36.3357 15.296 39.2471 12.3916 39.3268 12.2927C39.5805 11.9768 39.5824 11.4784 39.2902 11.0259L37.2047 7.79723C36.821 7.20302 36.0752 6.91227 35.5399 7.14795L32.71 10.0541Z" fill="url(#paint28_linear_40000002_943)"/>
<path d="M30.4987 3.40342C30.5246 2.78965 30.0118 2.14676 29.3533 1.96771L25.777 0.995211C25.4014 0.89302 25.0596 0.963672 24.8301 1.15725C24.6575 1.30315 21.8967 4.10486 21.8967 4.10486L27.5085 6.13087L30.4987 3.40342Z" fill="url(#paint29_linear_40000002_943)"/>
<path d="M16.0596 26.0618L19.2202 28.3852C19.8023 28.813 20.5247 28.7745 20.8339 28.2994L22.335 25.9928C23.2286 26.3561 24.137 26.6047 25.0331 26.7363L26.271 29.7989C26.5266 30.4305 27.2262 30.8633 27.8335 30.7653L31.133 30.2335C31.7407 30.1355 32.0257 29.544 31.7703 28.9122L30.5304 25.8459C31.064 25.5425 31.5578 25.1703 31.999 24.726C32.1615 24.5623 32.3138 24.3914 32.4567 24.2148L35.5463 25.7179C36.1829 26.0274 36.8372 25.8248 37.0071 25.2657L37.9315 22.227C38.102 21.6677 37.724 20.963 37.0872 20.6533L33.9995 19.1515C33.9591 18.3027 33.7986 17.4327 33.5217 16.5668L36.1214 15.4229C36.6568 15.1872 36.7797 14.5141 36.3956 13.9199L34.3103 10.6913C33.9268 10.0972 33.1812 9.8063 32.6455 10.0421L30.0473 11.1857C29.2432 10.4296 28.377 9.79103 27.4782 9.27411L27.6042 6.29745C27.6301 5.68368 27.1173 5.04104 26.4593 4.86192L22.8826 3.88918C22.2239 3.71019 21.6693 4.06252 21.643 4.67635L21.5171 7.65047C20.6376 7.66891 19.7879 7.80847 18.9958 8.07345L16.5922 5.52598C16.0966 5.00075 15.3427 4.87074 14.9086 5.23512L12.5493 7.21569C12.1149 7.58012 12.1646 8.30161 12.6598 8.82704L15.0592 11.3697C14.6696 12.1103 14.4175 12.9205 14.3 13.7718L11.1591 13.5721C10.754 13.5465 10.434 13.7255 10.2799 14.0198C10.1874 14.196 10.1545 14.4136 10.1986 14.6528L10.839 18.1187C10.957 18.7568 11.578 19.3074 12.2263 19.3485L15.3687 19.5484C15.8101 20.439 16.3763 21.3075 17.0642 22.125L15.5661 24.4268C15.2567 24.9021 15.4777 25.6343 16.0596 26.0618ZM21.322 20.0599C19.288 18.1296 18.8894 15.3055 20.4324 13.7524C21.9753 12.1993 24.8755 12.5047 26.9099 14.4349C28.9446 16.3653 29.3431 19.1891 27.8 20.7425C26.2571 22.2957 23.3573 21.9902 21.322 20.0599Z" fill="url(#paint30_linear_40000002_943)"/>
<path d="M28.7244 22.2077C26.6072 23.9464 22.9611 23.422 20.4231 21.0144C17.7215 18.4513 17.1903 14.6882 19.2392 12.6256C19.3385 12.5256 19.444 12.4296 19.5531 12.34C21.6703 10.6015 25.3168 11.1256 27.8548 13.5334C29.1635 14.7751 30.0073 16.3315 30.2305 17.9159C30.4544 19.5003 30.0308 20.9231 29.0381 21.9223C28.9387 22.0223 28.833 22.1185 28.7244 22.2077ZM19.6955 12.4926C19.5899 12.5793 19.4875 12.6724 19.3913 12.7695C17.4057 14.7682 17.9199 18.4149 20.5383 20.8986C22.9974 23.232 26.5307 23.74 28.5824 22.0553C28.6878 21.9686 28.7902 21.8753 28.8865 21.7784C29.8485 20.8103 30.2589 19.4312 30.0422 17.8962C29.8255 16.3607 29.0079 14.8525 27.7394 13.6493C25.2801 11.3159 21.7466 10.8078 19.6955 12.4926Z" fill="url(#paint31_linear_40000002_943)"/>
<defs>
<linearGradient id="paint0_linear_40000002_943" x1="14.6224" y1="24.7025" x2="15.9542" y2="26.1108" gradientUnits="userSpaceOnUse">
<stop stop-color="#8F9194"/>
<stop offset="0.5766" stop-color="#67686B"/>
<stop offset="0.672" stop-color="#565759"/>
<stop offset="1" stop-color="#6C6D70"/>
</linearGradient>
<linearGradient id="paint1_linear_40000002_943" x1="15.0821" y1="26.8611" x2="16.9677" y2="28.7666" gradientUnits="userSpaceOnUse">
<stop stop-color="#616264"/>
<stop offset="0.4892" stop-color="#95979A"/>
<stop offset="0.6669" stop-color="#828487"/>
<stop offset="0.7043" stop-color="#626466"/>
<stop offset="0.7258" stop-color="#707274"/>
</linearGradient>
<linearGradient id="paint2_linear_40000002_943" x1="18.9904" y1="29.6802" x2="17.1401" y2="27.817" gradientUnits="userSpaceOnUse">
<stop offset="0.0412" stop-color="#F1F1F2"/>
<stop offset="0.0732" stop-color="#E6E6E7"/>
<stop offset="0.1303" stop-color="#C7C8CA"/>
<stop offset="0.2009" stop-color="#999B9E"/>
<stop offset="0.3623" stop-color="#A5A7A9"/>
<stop offset="0.5353" stop-color="#DADBDC"/>
<stop offset="0.5939" stop-color="#BDBFC1"/>
<stop offset="0.759" stop-color="#A2A4A6"/>
<stop offset="1" stop-color="#737577"/>
</linearGradient>
<linearGradient id="paint3_linear_40000002_943" x1="18.0517" y1="28.5161" x2="20.7181" y2="31.1824" gradientUnits="userSpaceOnUse">
<stop stop-color="#C9CACC"/>
<stop offset="0.1068" stop-color="#E0E1E2"/>
<stop offset="0.2027" stop-color="#BFC1C3"/>
<stop offset="0.2048" stop-color="#BEC0C2"/>
<stop offset="0.8567" stop-color="#737577"/>
<stop offset="1" stop-color="#898B8E"/>
</linearGradient>
<linearGradient id="paint4_linear_40000002_943" x1="18.6514" y1="37.1934" x2="19.1445" y2="37.6597" gradientUnits="userSpaceOnUse">
<stop stop-color="#414042"/>
<stop offset="0.4032" stop-color="#656668"/>
<stop offset="0.9032" stop-color="#616264"/>
<stop offset="1" stop-color="#797A7D"/>
</linearGradient>
<linearGradient id="paint5_linear_40000002_943" x1="9.85287" y1="23.9734" x2="11.2358" y2="25.2407" gradientUnits="userSpaceOnUse">
<stop stop-color="#737577"/>
<stop offset="0.4693" stop-color="#C0C2C4"/>
<stop offset="1" stop-color="#97999B"/>
</linearGradient>
<linearGradient id="paint6_linear_40000002_943" x1="16.3231" y1="31.8397" x2="18.6887" y2="34.2302" gradientUnits="userSpaceOnUse">
<stop offset="0.1151" stop-color="#4F4F51"/>
<stop offset="0.5486" stop-color="#67686B"/>
<stop offset="0.6828" stop-color="#58595B"/>
<stop offset="0.7258" stop-color="#707274"/>
</linearGradient>
<linearGradient id="paint7_linear_40000002_943" x1="19.7194" y1="36.2786" x2="17.424" y2="33.9671" gradientUnits="userSpaceOnUse">
<stop stop-color="#A5A7A9"/>
<stop offset="0.1452" stop-color="#CFD1D2"/>
<stop offset="0.3163" stop-color="#AFB1B4"/>
<stop offset="0.5926" stop-color="#949699"/>
<stop offset="0.8871" stop-color="#737577"/>
<stop offset="1" stop-color="#5A5B5D"/>
</linearGradient>
<linearGradient id="paint8_linear_40000002_943" x1="2.90056" y1="25.6769" x2="4.86184" y2="27.7149" gradientUnits="userSpaceOnUse">
<stop offset="0.1022" stop-color="#EFEFF0"/>
<stop offset="0.1505" stop-color="#E0E1E2"/>
<stop offset="0.4552" stop-color="#CDCECF"/>
<stop offset="0.8098" stop-color="#B1B3B5"/>
<stop offset="1" stop-color="#737577"/>
</linearGradient>
<linearGradient id="paint9_linear_40000002_943" x1="8.20175" y1="22.6166" x2="9.75436" y2="24.2584" gradientUnits="userSpaceOnUse">
<stop stop-color="#B0B2B5"/>
<stop offset="0.9409" stop-color="#888A8C"/>
<stop offset="1" stop-color="#6C6D70"/>
</linearGradient>
<linearGradient id="paint10_linear_40000002_943" x1="6.03425" y1="21.8598" x2="7.45211" y2="23.3592" gradientUnits="userSpaceOnUse">
<stop stop-color="#D3D5D6"/>
<stop offset="0.0601" stop-color="#F1F1F2"/>
<stop offset="0.2691" stop-color="#E6E6E7"/>
<stop offset="0.5186" stop-color="#D2D4D5"/>
<stop offset="0.6033" stop-color="#EAEAEB"/>
<stop offset="0.6129" stop-color="#EDEDEE"/>
<stop offset="0.7043" stop-color="#DDDEE0"/>
<stop offset="0.9056" stop-color="#BFC0C3"/>
<stop offset="1" stop-color="#AFB1B4"/>
</linearGradient>
<linearGradient id="paint11_linear_40000002_943" x1="12.3301" y1="36.7222" x2="14.7553" y2="39.2335" gradientUnits="userSpaceOnUse">
<stop stop-color="#414042"/>
<stop offset="0.4032" stop-color="#656668"/>
<stop offset="0.7993" stop-color="#77787B"/>
<stop offset="0.8857" stop-color="#8C8E90"/>
<stop offset="0.9547" stop-color="#626365"/>
</linearGradient>
<linearGradient id="paint12_linear_40000002_943" x1="12.7234" y1="22.3254" x2="16.9583" y2="26.5602" gradientUnits="userSpaceOnUse">
<stop stop-color="#D2D4D5"/>
<stop offset="0.0699" stop-color="#E0E1E2"/>
<stop offset="0.1278" stop-color="#BFC1C3"/>
<stop offset="0.129" stop-color="#BEC0C2"/>
<stop offset="0.5449" stop-color="#737577"/>
<stop offset="0.6129" stop-color="#898B8E"/>
<stop offset="0.6989" stop-color="#67686B"/>
</linearGradient>
<linearGradient id="paint13_linear_40000002_943" x1="6.73815" y1="29.102" x2="13.2891" y2="35.8385" gradientUnits="userSpaceOnUse">
<stop offset="0.0831" stop-color="#515254"/>
<stop offset="0.2787" stop-color="#8A8C8E"/>
<stop offset="0.3602" stop-color="#A7A9AC"/>
<stop offset="0.586" stop-color="#97999C"/>
<stop offset="0.6935" stop-color="#BEC0C2"/>
<stop offset="0.7849" stop-color="#ABADB0"/>
<stop offset="0.8817" stop-color="#656668"/>
</linearGradient>
<linearGradient id="paint14_linear_40000002_943" x1="5.13136" y1="26.7618" x2="18.7861" y2="41.5462" gradientUnits="userSpaceOnUse">
<stop stop-color="#F1F1F2"/>
<stop offset="0.2006" stop-color="#E6E6E7"/>
<stop offset="0.558" stop-color="#C7C8CA"/>
<stop offset="1" stop-color="#999B9E"/>
</linearGradient>
<linearGradient id="paint15_linear_40000002_943" x1="0.290634" y1="23.8186" x2="14.9854" y2="34.8659" gradientUnits="userSpaceOnUse">
<stop stop-color="#6F7173"/>
<stop offset="0.2473" stop-color="#87888B"/>
<stop offset="1" stop-color="white"/>
</linearGradient>
<linearGradient id="paint16_linear_40000002_943" x1="21.5186" y1="11.7885" x2="31.3649" y2="21.9137" gradientUnits="userSpaceOnUse">
<stop offset="0.0323" stop-color="#515254"/>
<stop offset="0.2796" stop-color="#999B9E"/>
<stop offset="0.3548" stop-color="#BDBFC1"/>
<stop offset="0.4032" stop-color="#C4C6C8"/>
<stop offset="0.4677" stop-color="#BABCBE"/>
<stop offset="0.5699" stop-color="#9D9FA2"/>
<stop offset="0.6559" stop-color="#A3A5A7"/>
<stop offset="0.7097" stop-color="#AFB1B4"/>
<stop offset="0.7527" stop-color="#CFD1D2"/>
<stop offset="0.8656" stop-color="#818285"/>
<stop offset="1" stop-color="#8A8C8F"/>
</linearGradient>
<linearGradient id="paint17_linear_40000002_943" x1="20.9673" y1="5.89999" x2="23.687" y2="8.39218" gradientUnits="userSpaceOnUse">
<stop stop-color="#737577"/>
<stop offset="0.4693" stop-color="#C0C2C4"/>
<stop offset="1" stop-color="#97999B"/>
</linearGradient>
<linearGradient id="paint18_linear_40000002_943" x1="29.0782" y1="7.66038" x2="32.2326" y2="10.848" gradientUnits="userSpaceOnUse">
<stop stop-color="#616264"/>
<stop offset="0.4892" stop-color="#95979A"/>
<stop offset="0.6669" stop-color="#828487"/>
<stop offset="0.7043" stop-color="#626466"/>
<stop offset="0.7258" stop-color="#707274"/>
</linearGradient>
<linearGradient id="paint19_linear_40000002_943" x1="27.608" y1="4.68119" x2="30.1226" y2="7.34026" gradientUnits="userSpaceOnUse">
<stop stop-color="#F1F1F2"/>
<stop offset="0.1318" stop-color="#E6E6E7"/>
<stop offset="0.3658" stop-color="#C7C8CB"/>
<stop offset="0.5178" stop-color="#B0B2B5"/>
<stop offset="0.788" stop-color="#7E8082"/>
<stop offset="0.8455" stop-color="#737577"/>
<stop offset="0.9409" stop-color="#616264"/>
<stop offset="1" stop-color="#6C6D70"/>
</linearGradient>
<linearGradient id="paint20_linear_40000002_943" x1="34.3892" y1="10.4005" x2="32.5196" y2="8.51784" gradientUnits="userSpaceOnUse">
<stop offset="0.0412" stop-color="#F1F1F2"/>
<stop offset="0.0732" stop-color="#E6E6E7"/>
<stop offset="0.1303" stop-color="#C7C8CA"/>
<stop offset="0.2009" stop-color="#999B9E"/>
<stop offset="0.3623" stop-color="#A5A7A9"/>
<stop offset="0.5353" stop-color="#DADBDC"/>
<stop offset="0.5939" stop-color="#BDBFC1"/>
<stop offset="0.759" stop-color="#A2A4A6"/>
<stop offset="1" stop-color="#737577"/>
</linearGradient>
<linearGradient id="paint21_linear_40000002_943" x1="34.3234" y1="15.5904" x2="36.6906" y2="17.9824" gradientUnits="userSpaceOnUse">
<stop stop-color="#4F4F51"/>
<stop offset="0.4304" stop-color="#67686B"/>
<stop offset="0.6828" stop-color="#5F6062"/>
<stop offset="0.7258" stop-color="#707274"/>
</linearGradient>
<linearGradient id="paint22_linear_40000002_943" x1="40.4469" y1="22.0073" x2="35.6925" y2="17.2196" gradientUnits="userSpaceOnUse">
<stop stop-color="#F1F1F2"/>
<stop offset="0.0449" stop-color="#E6E6E7"/>
<stop offset="0.1247" stop-color="#C7C8CA"/>
<stop offset="0.1996" stop-color="#A5A7A9"/>
<stop offset="0.3065" stop-color="#DADBDC"/>
<stop offset="0.5529" stop-color="#AFB1B4"/>
<stop offset="0.7147" stop-color="#949699"/>
<stop offset="0.8871" stop-color="#737577"/>
<stop offset="1" stop-color="#5A5B5D"/>
</linearGradient>
<linearGradient id="paint23_linear_40000002_943" x1="31.0066" y1="25.1266" x2="33.7302" y2="27.947" gradientUnits="userSpaceOnUse">
<stop stop-color="#414042"/>
<stop offset="0.4032" stop-color="#656668"/>
<stop offset="0.7993" stop-color="#77787B"/>
<stop offset="0.8857" stop-color="#8C8E90"/>
<stop offset="0.9547" stop-color="#626365"/>
</linearGradient>
<linearGradient id="paint24_linear_40000002_943" x1="14.569" y1="3.92101" x2="17.5783" y2="6.0353" gradientUnits="userSpaceOnUse">
<stop stop-color="white"/>
<stop offset="1" stop-color="#9FA1A4"/>
</linearGradient>
<linearGradient id="paint25_linear_40000002_943" x1="12.8915" y1="11.3396" x2="15.9701" y2="14.5388" gradientUnits="userSpaceOnUse">
<stop offset="0.1022" stop-color="#EFEFF0"/>
<stop offset="0.1505" stop-color="#E0E1E2"/>
<stop offset="0.4552" stop-color="#CDCECF"/>
<stop offset="0.8098" stop-color="#B1B3B5"/>
<stop offset="1" stop-color="#737577"/>
</linearGradient>
<linearGradient id="paint26_linear_40000002_943" x1="16.7089" y1="3.37516" x2="20.1343" y2="6.99744" gradientUnits="userSpaceOnUse">
<stop stop-color="#D3D5D6"/>
<stop offset="0.0753" stop-color="#EDEEEF"/>
<stop offset="0.1344" stop-color="#F1F1F2"/>
<stop offset="0.1736" stop-color="#E6E6E7"/>
<stop offset="0.2204" stop-color="#D2D4D5"/>
<stop offset="0.4377" stop-color="#BABCBE"/>
<stop offset="0.5178" stop-color="#B0B2B5"/>
<stop offset="0.9409" stop-color="#888A8C"/>
<stop offset="1" stop-color="#6C6D70"/>
</linearGradient>
<linearGradient id="paint27_linear_40000002_943" x1="37.7753" y1="21.0337" x2="40.7247" y2="24.0247" gradientUnits="userSpaceOnUse">
<stop offset="0.117" stop-color="#D3D5D6"/>
<stop offset="0.1546" stop-color="#C0C2C4"/>
<stop offset="0.1996" stop-color="#95989A"/>
<stop offset="0.5324" stop-color="#565759"/>
</linearGradient>
<linearGradient id="paint28_linear_40000002_943" x1="33.9686" y1="8.71923" x2="38.4411" y2="13.1918" gradientUnits="userSpaceOnUse">
<stop stop-color="#D2D4D5"/>
<stop offset="0.0699" stop-color="#E0E1E2"/>
<stop offset="0.1278" stop-color="#BFC1C3"/>
<stop offset="0.129" stop-color="#BEC0C2"/>
<stop offset="0.8567" stop-color="#737577"/>
<stop offset="1" stop-color="#898B8E"/>
</linearGradient>
<linearGradient id="paint29_linear_40000002_943" x1="24.4219" y1="1.52704" x2="30.5224" y2="8.25495" gradientUnits="userSpaceOnUse">
<stop stop-color="#F1F1F2"/>
<stop offset="0.1122" stop-color="#E6E6E7"/>
<stop offset="0.3115" stop-color="#C7C8CB"/>
<stop offset="0.4462" stop-color="#AFB1B4"/>
<stop offset="0.5828" stop-color="#DFE0E2"/>
<stop offset="0.6218" stop-color="#CDCED0"/>
<stop offset="0.6995" stop-color="#9FA0A2"/>
<stop offset="0.7651" stop-color="#737577"/>
</linearGradient>
<linearGradient id="paint30_linear_40000002_943" x1="16.3576" y1="9.5377" x2="36.689" y2="31.5554" gradientUnits="userSpaceOnUse">
<stop stop-color="#F1F1F2"/>
<stop offset="0.2006" stop-color="#E6E6E7"/>
<stop offset="0.558" stop-color="#C7C8CA"/>
<stop offset="1" stop-color="#999B9E"/>
</linearGradient>
<linearGradient id="paint31_linear_40000002_943" x1="9.21727" y1="5.31939" x2="31.3524" y2="21.9633" gradientUnits="userSpaceOnUse">
<stop stop-color="#6F7173"/>
<stop offset="0.2473" stop-color="#87888B"/>
<stop offset="1" stop-color="white"/>
</linearGradient>
</defs>
</svg>
