<svg width="33" height="40" viewBox="0 0 33 40" fill="none" xmlns="http://www.w3.org/2000/svg">
<path d="M10.0081 2.88068L5.04961 5.76239L0.0600586 2.88169L5.01892 -1.52588e-05L10.0081 2.88068Z" fill="#FF7AD7"/>
<path d="M10.0081 2.88068L9.94812 24.0936L4.98926 26.9753L5.04962 5.76238L10.0081 2.88068Z" fill="#FF3CC4"/>
<path d="M5.04957 5.7624L4.98921 26.9753L0 24.0946L0.0600208 2.8817L5.04957 5.7624Z" fill="#FF5CCE"/>
<path d="M17.4847 11.5632L12.5262 14.4446L7.53662 11.5642L12.4951 8.68254L17.4847 11.5632Z" fill="#FFD061"/>
<path d="M17.4847 11.5632L17.4247 28.3501L12.4658 31.2318L12.5262 14.4446L17.4847 11.5632Z" fill="#FFC233"/>
<path d="M12.5261 14.4446L12.4658 31.2318L7.47656 28.3511L7.53658 11.5643L12.5261 14.4446Z" fill="#FFC847"/>
<path d="M25.0916 20.3817L20.1331 23.2634L15.1436 20.3827L20.1021 17.5013L25.0916 20.3817Z" fill="#FF8138"/>
<path d="M25.0916 20.3817L25.0313 32.7428L20.0728 35.6245L20.1331 23.2634L25.0916 20.3817Z" fill="#FF6D19"/>
<path d="M20.1331 23.2634L20.0727 35.6245L15.0835 32.7438L15.1435 20.3827L20.1331 23.2634Z" fill="#FF7729"/>
<path d="M32.7835 29.1833L27.825 32.0647L22.8354 29.1843L27.7943 26.3026L32.7835 29.1833Z" fill="#A3F1FF"/>
<path d="M32.7837 29.1833L32.7237 37.1183L27.7651 40L27.8252 32.0647L32.7837 29.1833Z" fill="#00D8FF"/>
<path d="M27.825 32.0647L27.7649 40L22.7754 37.1193L22.8354 29.1843L27.825 32.0647Z" fill="#30DFFF"/>
</svg>
