<svg width="295" height="295" viewBox="0 0 295 295" fill="none" xmlns="http://www.w3.org/2000/svg">
<path d="M251.797 251.797C224.136 279.459 186.619 294.999 147.499 294.999L147.499 147.499L251.797 251.797Z" fill="#390639"/>
<path d="M147.499 294.999C108.38 294.999 70.8632 279.459 43.2016 251.797L147.499 147.499L147.499 294.999Z" fill="#FBFF01"/>
<path d="M294.999 147.499C294.999 186.619 279.459 224.136 251.797 251.797L147.499 147.499L294.999 147.499Z" fill="#FBFF01"/>
<path d="M43.2016 251.797C15.5401 224.136 5.52115e-06 186.619 -3.04851e-07 147.499L147.499 147.499L43.2016 251.797Z" fill="#390639"/>
<path d="M251.799 43.2028C279.461 70.8643 295.001 108.381 295.001 147.501L147.502 147.501L251.799 43.2028Z" fill="#390639"/>
<path d="M147.502 0.00117249C186.621 0.00117595 224.138 15.5412 251.799 43.2027L147.502 147.501L147.502 0.00117249Z" fill="#FBFF01"/>
<path d="M43.2037 43.2027C70.8652 15.5412 108.382 0.00116903 147.502 0.00117249L147.502 147.501L43.2037 43.2027Z" fill="#390639"/>
<path d="M0.00217514 147.501C0.0021786 108.381 15.5423 70.8643 43.2037 43.2028L147.502 147.501L0.00217514 147.501Z" fill="#FBFF01"/>
<path d="M52.9714 181.234L53.7064 183.005C53.9118 183.5 54.0209 183.955 54.0335 184.37C54.0481 184.79 53.9569 185.193 53.7601 185.578C53.5633 185.963 53.2537 186.352 52.8315 186.746L51.1898 188.273C50.8967 188.555 50.7093 188.821 50.6276 189.074C50.546 189.326 50.5598 189.583 50.6691 189.847C50.769 190.088 50.9529 190.261 51.2209 190.368C51.4908 190.48 51.8119 190.458 52.1843 190.304C52.5294 190.161 52.7835 189.933 52.9466 189.62C53.1097 189.308 53.1293 188.951 53.0054 188.55L55.4167 187.549C55.719 188.265 55.7964 188.919 55.6488 189.513C55.4986 190.113 55.1862 190.636 54.7117 191.084C54.2391 191.535 53.6713 191.899 53.0083 192.174C52.3634 192.441 51.7286 192.566 51.1039 192.549C50.4745 192.533 49.9137 192.375 49.4213 192.073C48.9263 191.779 48.5563 191.336 48.3113 190.746C48.1171 190.278 48.0287 189.827 48.0459 189.394C48.0632 188.961 48.1986 188.525 48.4523 188.084C48.7078 187.648 49.0963 187.186 49.6178 186.698L51.243 185.169C51.4649 184.96 51.606 184.787 51.6663 184.65C51.724 184.52 51.7217 184.379 51.6596 184.23L51.6171 184.127L46.4812 186.259L45.6557 184.27L52.9714 181.234ZM40.7789 186.038C41.5145 185.733 42.1989 185.593 42.832 185.618C43.4624 185.649 44.02 185.838 44.5047 186.185C44.9895 186.532 45.3798 187.03 45.6758 187.679L43.4416 188.606C43.2795 188.216 43.0295 187.979 42.6915 187.896C42.3554 187.817 41.992 187.859 41.6015 188.021C41.2246 188.177 40.9546 188.444 40.7914 188.82C40.6237 189.198 40.619 189.578 40.7773 189.96C41.0713 190.668 41.7201 190.814 42.7237 190.398L45.8503 189.1L47.4559 194.239L41.5707 196.681L40.7395 194.679L44.8742 192.963L44.6933 193.7L43.9892 191.35L44.1989 191.47C44.0017 191.611 43.7475 191.761 43.4364 191.922C43.1226 192.09 42.859 192.218 42.6456 192.306C41.7465 192.68 40.9264 192.743 40.1855 192.497C39.4445 192.251 38.9016 191.712 38.5567 190.881C38.3004 190.264 38.2188 189.637 38.312 189.003C38.4071 188.372 38.6626 187.795 39.0786 187.271C39.4946 186.747 40.0614 186.336 40.7789 186.038ZM32.2495 189.578C33.0306 189.254 33.797 189.138 34.5487 189.231C35.2959 189.325 35.9881 189.653 36.6254 190.214C37.26 190.781 37.8015 191.605 38.2501 192.685C38.7043 193.78 38.9072 194.75 38.8587 195.595C38.8076 196.446 38.5507 197.168 38.0881 197.759C37.6228 198.357 36.9997 198.818 36.2186 199.142C35.4466 199.462 34.6893 199.574 33.9466 199.478C33.2058 199.386 32.5159 199.058 31.8768 198.493C31.2395 197.932 30.6938 197.104 30.2396 196.01C29.791 194.929 29.5923 193.963 29.6434 193.111C29.6964 192.264 29.951 191.544 30.4072 190.95C30.8634 190.356 31.4775 189.899 32.2495 189.578ZM33.0721 191.561C32.5454 191.779 32.2201 192.188 32.0964 192.788C31.9745 193.392 32.1048 194.155 32.4874 195.077C32.87 195.999 33.3192 196.632 33.835 196.977C34.3526 197.327 34.8748 197.392 35.4016 197.173C35.9511 196.945 36.2849 196.525 36.403 195.911C36.5184 195.304 36.3848 194.54 36.0022 193.618C35.6197 192.696 35.1737 192.064 34.6644 191.722C34.1524 191.386 33.6216 191.332 33.0721 191.561Z" fill="#FBFF01"/>
<path d="M112.628 245.074L111.739 247.212L106.243 244.927L105.581 246.521L103.701 245.739L104.364 244.146L102.532 243.384L103.432 241.219L105.264 241.98L107.15 237.445L108.778 238.122L112.628 245.074ZM109.463 243.87L107.707 240.696L106.841 242.78L109.463 243.87ZM99.6989 249.583C100.024 248.802 100.485 248.179 101.083 247.714C101.679 247.254 102.401 246.998 103.248 246.945C104.097 246.899 105.063 247.101 106.143 247.55C107.237 248.005 108.065 248.549 108.627 249.182C109.192 249.822 109.519 250.514 109.609 251.259C109.701 252.011 109.584 252.778 109.26 253.558C108.939 254.33 108.481 254.944 107.887 255.4C107.297 255.857 106.577 256.112 105.725 256.162C104.878 256.215 103.907 256.013 102.813 255.558C101.733 255.109 100.91 254.565 100.345 253.925C99.7852 253.288 99.4571 252.597 99.3613 251.855C99.2654 251.112 99.378 250.355 99.6989 249.583ZM101.681 250.407C101.462 250.933 101.52 251.453 101.855 251.965C102.195 252.479 102.826 252.928 103.748 253.311C104.669 253.694 105.434 253.826 106.043 253.707C106.657 253.589 107.073 253.267 107.292 252.74C107.52 252.191 107.46 251.657 107.111 251.139C106.764 250.628 106.13 250.18 105.209 249.797C104.287 249.414 103.525 249.281 102.923 249.398C102.323 249.521 101.909 249.858 101.681 250.407ZM95.8829 258.76C96.2076 257.979 96.6689 257.356 97.2669 256.892C97.863 256.431 98.5846 256.175 99.4318 256.122C100.282 256.076 101.247 256.278 102.327 256.727C103.421 257.182 104.249 257.726 104.811 258.359C105.376 258.999 105.703 259.691 105.793 260.437C105.885 261.188 105.769 261.955 105.444 262.736C105.123 263.507 104.665 264.121 104.071 264.577C103.481 265.035 102.761 265.289 101.909 265.339C101.062 265.392 100.091 265.19 98.9973 264.736C97.9168 264.286 97.0942 263.742 96.5294 263.102C95.9692 262.465 95.6412 261.775 95.5453 261.032C95.4495 260.289 95.562 259.532 95.8829 258.76ZM97.8646 259.584C97.6456 260.111 97.7038 260.63 98.0393 261.142C98.3793 261.656 99.0101 262.105 99.9317 262.488C100.853 262.872 101.618 263.003 102.227 262.884C102.841 262.766 103.257 262.444 103.476 261.917C103.704 261.368 103.644 260.834 103.295 260.316C102.948 259.805 102.314 259.358 101.393 258.974C100.471 258.591 99.7092 258.458 99.1068 258.575C98.507 258.698 98.093 259.035 97.8646 259.584Z" fill="#390639"/>
<path d="M255.336 186.963L256.918 187.613L253.123 196.849L250.94 195.952L253.656 189.342C253.371 189.299 253.107 189.249 252.865 189.192C252.627 189.137 252.395 189.061 252.17 188.963L253.022 186.889C253.365 186.998 253.717 187.06 254.078 187.075C254.443 187.093 254.862 187.055 255.336 186.963ZM258.808 199.441C258.026 199.119 257.401 198.66 256.934 198.064C256.471 197.47 256.212 196.75 256.156 195.903C256.106 195.053 256.304 194.087 256.749 193.005C257.199 191.909 257.74 191.079 258.37 190.514C259.007 189.946 259.698 189.616 260.443 189.524C261.195 189.429 261.962 189.542 262.744 189.863C263.517 190.181 264.133 190.636 264.591 191.228C265.051 191.816 265.308 192.535 265.362 193.387C265.418 194.234 265.221 195.205 264.771 196.301C264.326 197.384 263.785 198.208 263.148 198.776C262.513 199.339 261.824 199.67 261.082 199.769C260.339 199.868 259.582 199.758 258.808 199.441ZM259.624 197.455C260.152 197.672 260.671 197.612 261.182 197.274C261.694 196.932 262.14 196.299 262.52 195.376C262.899 194.453 263.028 193.687 262.906 193.079C262.785 192.466 262.461 192.051 261.934 191.835C261.384 191.608 260.85 191.671 260.334 192.022C259.824 192.371 259.379 193.007 259 193.93C258.62 194.853 258.49 195.616 258.61 196.217C258.736 196.817 259.074 197.229 259.624 197.455Z" fill="#390639"/>
<path d="M181.655 245.295C181.369 244.552 181.248 243.864 181.289 243.232C181.337 242.602 181.541 242.05 181.901 241.575C182.261 241.099 182.77 240.723 183.427 240.444L184.293 242.702C183.899 242.854 183.655 243.098 183.563 243.433C183.475 243.767 183.507 244.131 183.658 244.526C183.805 244.907 184.064 245.184 184.436 245.357C184.809 245.535 185.189 245.55 185.575 245.402C186.291 245.127 186.454 244.483 186.065 243.468L184.851 240.308L190.031 238.841L192.315 244.79L190.291 245.567L188.686 241.387L189.419 241.588L187.05 242.229L187.176 242.022C187.311 242.223 187.455 242.481 187.608 242.797C187.767 243.115 187.888 243.382 187.971 243.598C188.32 244.506 188.361 245.328 188.095 246.062C187.829 246.796 187.276 247.324 186.436 247.647C185.812 247.886 185.184 247.951 184.552 247.841C183.924 247.729 183.354 247.458 182.841 247.028C182.329 246.598 181.933 246.02 181.655 245.295ZM184.964 253.917C184.661 253.127 184.566 252.358 184.679 251.609C184.793 250.864 185.139 250.181 185.717 249.559C186.301 248.94 187.139 248.421 188.231 248.002C189.338 247.577 190.313 247.4 191.156 247.471C192.006 247.545 192.72 247.822 193.299 248.3C193.884 248.781 194.328 249.416 194.631 250.206C194.931 250.986 195.022 251.746 194.906 252.486C194.794 253.224 194.447 253.905 193.865 254.529C193.288 255.151 192.446 255.674 191.34 256.099C190.247 256.518 189.276 256.691 188.426 256.617C187.581 256.541 186.867 256.267 186.286 255.795C185.704 255.323 185.264 254.697 184.964 253.917ZM186.968 253.147C187.172 253.68 187.573 254.016 188.169 254.156C188.769 254.294 189.536 254.184 190.467 253.826C191.399 253.469 192.044 253.037 192.403 252.53C192.766 252.022 192.846 251.502 192.641 250.97C192.428 250.414 192.016 250.069 191.407 249.935C190.803 249.803 190.035 249.916 189.104 250.274C188.172 250.631 187.528 251.06 187.172 251.56C186.823 252.063 186.755 252.592 186.968 253.147ZM188.526 263.195C188.223 262.406 188.128 261.637 188.241 260.888C188.355 260.143 188.701 259.46 189.279 258.838C189.863 258.219 190.701 257.7 191.793 257.28C192.899 256.856 193.874 256.679 194.718 256.75C195.568 256.824 196.282 257.1 196.861 257.579C197.446 258.06 197.89 258.695 198.193 259.485C198.492 260.265 198.584 261.025 198.468 261.765C198.356 262.503 198.009 263.184 197.427 263.808C196.849 264.429 196.008 264.953 194.901 265.377C193.809 265.797 192.838 265.969 191.988 265.895C191.142 265.82 190.429 265.546 189.848 265.074C189.266 264.602 188.826 263.976 188.526 263.195ZM190.53 262.426C190.734 262.959 191.134 263.295 191.73 263.435C192.331 263.573 193.097 263.463 194.029 263.105C194.961 262.748 195.606 262.316 195.965 261.809C196.328 261.301 196.407 260.781 196.203 260.249C195.99 259.693 195.578 259.348 194.968 259.214C194.365 259.082 193.597 259.195 192.665 259.553C191.734 259.91 191.09 260.339 190.734 260.839C190.385 261.342 190.316 261.871 190.53 262.426Z" fill="#FBFF01"/>
<path d="M250.38 110.702L249.655 108.927C249.452 108.431 249.346 107.975 249.335 107.56C249.323 107.14 249.416 106.738 249.615 106.354C249.814 105.97 250.126 105.582 250.55 105.191L252.2 103.672C252.495 103.393 252.684 103.127 252.767 102.875C252.85 102.624 252.837 102.366 252.73 102.102C252.631 101.861 252.448 101.686 252.181 101.577C251.911 101.464 251.59 101.484 251.217 101.636C250.871 101.778 250.616 102.004 250.451 102.316C250.286 102.628 250.265 102.984 250.386 103.386L247.969 104.374C247.671 103.656 247.597 103.001 247.748 102.409C247.902 101.809 248.217 101.288 248.694 100.843C249.169 100.394 249.739 100.034 250.403 99.762C251.049 99.4979 251.685 99.3764 252.31 99.3973C252.939 99.4163 253.499 99.5779 253.989 99.8819C254.483 100.18 254.85 100.624 255.092 101.216C255.284 101.685 255.37 102.136 255.35 102.568C255.331 103.001 255.193 103.437 254.937 103.877C254.679 104.311 254.288 104.771 253.764 105.256L252.13 106.776C251.907 106.984 251.765 107.157 251.704 107.293C251.646 107.423 251.647 107.563 251.708 107.713L251.75 107.816L256.898 105.712L257.712 107.706L250.38 110.702ZM262.947 105.822C262.164 106.142 261.397 106.253 260.646 106.157C259.899 106.058 259.209 105.727 258.575 105.163C257.943 104.592 257.406 103.765 256.963 102.682C256.515 101.585 256.318 100.614 256.371 99.7693C256.427 98.9179 256.687 98.1979 257.153 97.6092C257.622 97.0141 258.247 96.5566 259.03 96.2367C259.804 95.9205 260.562 95.8126 261.304 95.913C262.044 96.0089 262.732 96.3411 263.368 96.9098C264.003 97.4739 264.544 98.3044 264.992 99.4012C265.435 100.484 265.628 101.452 265.572 102.303C265.515 103.15 265.256 103.869 264.797 104.46C264.337 105.052 263.721 105.506 262.947 105.822ZM262.135 103.835C262.663 103.619 262.991 103.212 263.118 102.613C263.243 102.01 263.117 101.246 262.739 100.322C262.362 99.3979 261.916 98.7621 261.402 98.4144C260.886 98.0622 260.364 97.9939 259.836 98.2097C259.286 98.4347 258.95 98.8536 258.828 99.4662C258.709 100.072 258.839 100.837 259.216 101.761C259.594 102.685 260.036 103.32 260.544 103.665C261.054 104.003 261.584 104.06 262.135 103.835Z" fill="#FBFF01"/>
<path d="M182.234 48.4474L182.863 46.856L192.15 50.5236L191.284 52.7187L184.637 50.0939C184.598 50.3798 184.552 50.6444 184.498 50.8875C184.446 51.126 184.373 51.3587 184.278 51.5855L182.192 50.762C182.297 50.4174 182.354 50.0647 182.364 49.704C182.376 49.3388 182.333 48.9199 182.234 48.4474ZM194.663 44.8032C194.353 45.5897 193.902 46.2208 193.313 46.6963C192.725 47.1673 192.008 47.4366 191.162 47.5042C190.313 47.5655 189.345 47.3812 188.256 46.9515C187.154 46.5162 186.317 45.9872 185.743 45.3643C185.167 44.7351 184.828 44.0486 184.725 43.305C184.619 42.5549 184.722 41.7866 185.032 41.0001C185.339 40.2227 185.786 39.6008 186.372 39.1344C186.953 38.6662 187.669 38.3991 188.52 38.3333C189.366 38.2656 190.34 38.4494 191.442 38.8846C192.53 39.3144 193.363 39.844 193.939 40.4732C194.51 41.1007 194.851 41.7848 194.96 42.5257C195.069 43.2666 194.97 44.0258 194.663 44.8032ZM192.667 44.0149C192.876 43.4844 192.809 42.9662 192.464 42.46C192.115 41.9521 191.476 41.5149 190.548 41.1483C189.62 40.7817 188.852 40.6637 188.246 40.7942C187.635 40.9228 187.224 41.2524 187.015 41.7829C186.796 42.3362 186.866 42.8687 187.224 43.3802C187.58 43.8854 188.222 44.3212 189.15 44.6878C190.079 45.0544 190.843 45.1738 191.443 45.0461C192.041 44.912 192.448 44.5683 192.667 44.0149ZM198.314 35.5589C198.003 36.3454 197.553 36.9765 196.963 37.452C196.376 37.923 195.659 38.1923 194.813 38.2599C193.964 38.3212 192.995 38.1369 191.907 37.7072C190.805 37.2719 189.967 36.7429 189.394 36.12C188.818 35.4908 188.478 34.8043 188.375 34.0607C188.27 33.3106 188.372 32.5423 188.683 31.7558C188.99 30.9784 189.436 30.3565 190.022 29.8901C190.604 29.4219 191.319 29.1548 192.17 29.089C193.016 29.0213 193.99 29.2051 195.092 29.6403C196.181 30.0701 197.013 30.5997 197.589 31.2289C198.161 31.8564 198.501 32.5405 198.61 33.2814C198.719 34.0223 198.621 34.7814 198.314 35.5589ZM196.317 34.7706C196.527 34.2401 196.459 33.7219 196.115 33.2157C195.766 32.7078 195.127 32.2706 194.198 31.904C193.27 31.5374 192.503 31.4194 191.896 31.5499C191.285 31.6785 190.875 32.0081 190.665 32.5386C190.447 33.0919 190.517 33.6244 190.875 34.1359C191.23 34.6411 191.872 35.0769 192.801 35.4435C193.729 35.8101 194.493 35.9295 195.094 35.8018C195.691 35.6677 196.099 35.324 196.317 34.7706Z" fill="#390639"/>
<path d="M49.0407 111.741L47.4611 111.084L51.298 101.864L53.4768 102.771L50.7309 109.369C51.0161 109.413 51.2797 109.464 51.5218 109.522C51.7593 109.579 51.9906 109.656 52.2157 109.755L51.3542 111.825C51.0115 111.715 50.66 111.651 50.2995 111.634C49.9346 111.615 49.5149 111.651 49.0407 111.741ZM45.5972 99.2362C46.446 99.5895 47.1232 100.01 47.6287 100.497C48.1341 100.984 48.464 101.497 48.6181 102.035C48.7704 102.578 48.7407 103.103 48.5291 103.612C48.361 104.016 48.1071 104.312 47.7676 104.501C47.428 104.69 47.0387 104.781 46.5996 104.774C46.1605 104.767 45.7095 104.667 45.2465 104.474C44.9923 104.369 44.7734 104.248 44.5899 104.113C44.4019 103.976 44.1764 103.808 43.9135 103.608L44.1119 103.131C44.4251 103.262 44.728 103.34 45.0208 103.366C45.3071 103.395 45.5535 103.372 45.76 103.298C45.9664 103.224 46.1065 103.099 46.1802 102.922C46.2576 102.736 46.2426 102.535 46.1351 102.32C46.0257 102.109 45.8519 101.906 45.6135 101.711C45.3706 101.514 45.0903 101.35 44.7726 101.218C44.0962 100.936 43.5967 100.805 43.2741 100.826C42.947 100.844 42.7456 100.944 42.6701 101.125C42.6115 101.266 42.6144 101.419 42.6788 101.584C42.7412 101.754 42.858 101.928 43.029 102.106L45.285 104.267C45.5543 104.528 45.8143 104.844 46.0648 105.214C46.3108 105.583 46.481 105.987 46.5753 106.425C46.6633 106.867 46.6109 107.319 46.4182 107.782C46.1915 108.327 45.8558 108.73 45.4111 108.992C44.9619 109.253 44.4189 109.368 43.782 109.337C43.1386 109.309 42.4175 109.128 41.6186 108.796C40.9332 108.511 40.3549 108.134 39.8839 107.666C39.4064 107.201 39.0824 106.694 38.912 106.144C38.7397 105.598 38.7641 105.06 38.9851 104.529C39.1211 104.202 39.3453 103.938 39.6576 103.738C39.968 103.542 40.3384 103.433 40.7688 103.41C41.1992 103.386 41.6595 103.477 42.1498 103.681C42.3722 103.773 42.5657 103.878 42.7303 103.994C42.8948 104.111 43.0849 104.262 43.3006 104.447L43.054 105.04C42.8271 104.945 42.5928 104.888 42.3511 104.867C42.1049 104.844 41.8872 104.868 41.6981 104.939C41.5045 105.007 41.3718 105.128 41.3 105.3C41.2169 105.5 41.2138 105.693 41.2906 105.879C41.3629 106.064 41.4984 106.238 41.697 106.4C41.8957 106.563 42.1425 106.705 42.4375 106.828C42.7099 106.941 42.9718 107.016 43.2234 107.051C43.473 107.091 43.6876 107.087 43.8673 107.04C44.045 106.997 44.1641 106.902 44.2245 106.757C44.2831 106.616 44.2855 106.476 44.2317 106.337C44.1734 106.195 44.0575 106.032 43.8838 105.848L41.4984 103.538C40.9362 102.995 40.5466 102.478 40.3297 101.989C40.1064 101.502 40.1241 100.947 40.3829 100.325C40.604 99.7942 40.9612 99.3837 41.4546 99.0938C41.9417 98.8066 42.5371 98.6683 43.2409 98.679C43.9448 98.6896 44.7302 98.8754 45.5972 99.2362ZM36.3686 95.3954C37.1494 95.7204 37.7721 96.1819 38.2368 96.78C38.6969 97.3763 38.9531 98.098 39.0052 98.9451C39.051 99.7949 38.849 100.76 38.3994 101.84C37.9441 102.934 37.3998 103.762 36.7666 104.324C36.1269 104.889 35.4343 105.216 34.6889 105.305C33.9371 105.397 33.1708 105.28 32.39 104.955C31.6184 104.634 31.0047 104.176 30.5491 103.582C30.0916 102.992 29.8378 102.271 29.7875 101.42C29.7353 100.572 29.9369 99.6018 30.3922 98.5079C30.8418 97.4275 31.3865 96.6051 32.0262 96.0405C32.664 95.4805 33.3542 95.1527 34.097 95.0571C34.8397 94.9615 35.597 95.0743 36.3686 95.3954ZM35.544 97.3768C35.0175 97.1577 34.498 97.2157 33.9857 97.551C33.4715 97.8909 33.0226 98.5215 32.6391 99.443C32.2556 100.364 32.1235 101.13 32.2429 101.738C32.3604 102.352 32.6824 102.768 33.209 102.987C33.7582 103.216 34.2919 103.156 34.8099 102.807C35.3214 102.461 35.769 101.827 36.1525 100.905C36.536 99.9838 36.6694 99.2218 36.5526 98.6194C36.4295 98.0196 36.0933 97.6054 35.544 97.3768Z" fill="#390639"/>
<path d="M102.376 51.6354L101.719 50.0557L110.938 46.2199L111.845 48.3989L105.247 51.144C105.418 51.3763 105.569 51.5984 105.7 51.8102C105.829 52.0176 105.938 52.2357 106.028 52.4645L103.958 53.3257C103.793 53.0057 103.588 52.7126 103.345 52.4466C103.099 52.1761 102.776 51.9057 102.376 51.6354ZM108.903 40.712C109.208 41.4474 109.349 42.1317 109.325 42.7648C109.295 43.3952 109.106 43.953 108.759 44.438C108.413 44.9231 107.915 45.3139 107.266 45.6104L106.337 43.377C106.727 43.2146 106.964 42.9644 107.047 42.6263C107.125 42.2901 107.083 41.9268 106.921 41.5364C106.764 41.1596 106.498 40.8898 106.121 40.727C105.742 40.5596 105.363 40.5553 104.981 40.7139C104.273 41.0085 104.128 41.6575 104.545 42.6607L105.845 45.7861L100.708 47.3962L98.2605 41.5131L100.262 40.6802L101.982 44.8134L101.244 44.6332L103.594 43.927L103.474 44.1368C103.333 43.9397 103.182 43.6857 103.021 43.3747C102.853 43.0611 102.725 42.7976 102.636 42.5842C102.262 41.6854 102.198 40.8654 102.443 40.1243C102.689 39.3831 103.227 38.8397 104.058 38.4941C104.675 38.2373 105.301 38.1552 105.936 38.2478C106.567 38.3423 107.144 38.5973 107.668 39.0129C108.193 39.4284 108.604 39.9948 108.903 40.712ZM105.355 32.1857C105.68 32.9665 105.797 33.7328 105.705 34.4847C105.611 35.2319 105.284 35.9245 104.724 36.5622C104.157 37.1973 103.334 37.7396 102.253 38.189C101.159 38.6442 100.19 38.8479 99.3445 38.8002C98.4928 38.7498 97.7711 38.4936 97.1795 38.0315C96.5814 37.5667 96.1199 36.9439 95.7951 36.1632C95.474 35.3914 95.3614 34.6342 95.4571 33.8915C95.5482 33.1506 95.8761 32.4604 96.4407 31.8208C97.0008 31.183 97.8279 30.6366 98.9219 30.1814C100.002 29.7319 100.968 29.5324 101.82 29.5828C102.667 29.635 103.388 29.889 103.982 30.3447C104.576 30.8003 105.034 31.414 105.355 32.1857ZM103.374 33.0101C103.155 32.4835 102.745 32.1586 102.145 32.0354C101.541 31.9141 100.778 32.0451 99.8567 32.4285C98.9352 32.8119 98.3023 33.2616 97.9578 33.7776C97.6088 34.2956 97.5439 34.8179 97.763 35.3444C97.9915 35.8937 98.4124 36.2271 99.0258 36.3447C99.6328 36.4596 100.397 36.3254 101.319 35.942C102.24 35.5586 102.872 35.1121 103.213 34.6025C103.549 34.0902 103.602 33.5594 103.374 33.0101Z" fill="#FBFF01"/>
</svg>
