<svg width="87" height="120" viewBox="0 0 87 120" fill="none" xmlns="http://www.w3.org/2000/svg">
<path d="M86.4976 28.246C86.1199 30.5881 85.3426 32.8546 84.1988 34.9485L44.1446 120L0.971274 31.1384C0.582601 30.1778 0.258928 29.1956 0 28.1917C14.0313 25.9683 28.419 24.8242 43.0763 24.8242C57.852 24.8245 72.3585 25.9902 86.4976 28.246Z" fill="url(#paint0_linear_40000002_1754)"/>
<path d="M74.3166 5.04405V31.8946C74.3166 34.4619 73.6761 36.9887 72.4535 39.2461L43.8425 99.995L13.0015 36.5299C12.2376 34.6696 11.8447 32.6781 11.8447 30.6672V5.04433C11.8447 2.25833 14.103 3.05439e-05 16.889 3.05439e-05H69.2723C72.058 -0.000250899 74.3166 2.25805 74.3166 5.04405Z" fill="url(#paint1_linear_40000002_1754)"/>
<defs>
<linearGradient id="paint0_linear_40000002_1754" x1="43.2488" y1="120" x2="43.2488" y2="24.8244" gradientUnits="userSpaceOnUse">
<stop offset="0.2177" stop-color="white"/>
<stop offset="0.7011" stop-color="#F4E8A2"/>
<stop offset="0.7404" stop-color="#E5DA9C"/>
<stop offset="0.8104" stop-color="#D0C793"/>
<stop offset="0.8797" stop-color="#C4BC8E"/>
<stop offset="0.9469" stop-color="#C0B88C"/>
</linearGradient>
<linearGradient id="paint1_linear_40000002_1754" x1="43.0807" y1="99.9949" x2="43.0807" y2="-0.000333054" gradientUnits="userSpaceOnUse">
<stop offset="0.2177" stop-color="white"/>
<stop offset="0.7011" stop-color="#F4E8A2"/>
<stop offset="0.7404" stop-color="#E5DA9C"/>
<stop offset="0.8104" stop-color="#D0C793"/>
<stop offset="0.8797" stop-color="#C4BC8E"/>
<stop offset="0.9469" stop-color="#C0B88C"/>
</linearGradient>
</defs>
</svg>
