<svg width="390" height="844" viewBox="0 0 390 844" fill="none" xmlns="http://www.w3.org/2000/svg">
<path d="M390 0H0V844H390V0Z" fill="#1F021F"/>
<mask id="mask0_28_1359" style="mask-type:luminance" maskUnits="userSpaceOnUse" x="0" y="0" width="195" height="844">
<path d="M195 0H0V844H195V0Z" fill="white"/>
</mask>
<g mask="url(#mask0_28_1359)">
<g opacity="0.27">
<path d="M46.6237 -124.97C54.2952 -93.2777 62.0831 -61.7275 69.9866 -30.3224C77.89 1.08196 85.908 32.3385 94.0471 63.4743C110.322 125.731 127.057 187.392 144.245 248.428C139.727 233.465 135.181 218.541 130.606 203.656C126.033 188.777 121.433 173.941 116.804 159.143C107.547 129.548 98.1764 100.111 88.6941 70.8374C79.2118 41.5632 69.6178 12.4516 59.9128 -16.4943C55.0608 -30.9656 50.1795 -45.4027 45.2734 -59.7846C40.3676 -74.1655 35.4342 -88.5044 30.4731 -102.801L31.4605 -104.277C31.7902 -104.767 32.1229 -105.242 32.4544 -105.724L34.4493 -108.594L36.4515 -111.44L37.4555 -112.852L38.4658 -114.232C39.814 -116.069 41.1671 -117.89 42.5245 -119.695C43.202 -120.605 43.8852 -121.48 44.569 -122.355L46.6237 -124.97Z" fill="#4D0A4F"/>
<path d="M14.1145 -76.3165C38.4702 -3.52642 63.3628 68.3451 88.7805 139.265C101.487 174.719 114.333 209.958 127.309 244.954C140.285 279.949 153.39 314.701 166.624 349.207C153.21 315.04 139.666 281.115 125.995 247.438C122.577 239.018 119.151 230.614 115.717 222.226C112.285 213.841 108.844 205.472 105.396 197.118C98.4991 180.41 91.5704 163.765 84.6101 147.183C56.7689 80.8526 28.4213 15.5276 -0.419678 -48.7618C0.758044 -51.1457 1.94193 -53.5155 3.13166 -55.8706L4.025 -57.6341L4.47248 -58.5137L4.92434 -59.3812L6.73799 -62.8355L8.56031 -66.2675C9.16878 -67.4089 9.77843 -68.5473 10.3971 -69.6584C11.6306 -71.8928 12.8699 -74.1123 14.1145 -76.3165Z" fill="#4D0A4F"/>
<path d="M-14.8044 -16.9064C2.96844 25.1404 21.0412 66.4994 39.4044 107.15C48.5877 127.478 57.8367 147.616 67.1699 167.6C76.5022 187.581 85.9058 207.384 95.3799 227.005C85.4295 208.62 75.409 190.416 65.3195 172.397C55.2295 154.377 45.0704 136.541 34.8532 118.909C14.4139 83.635 -6.29655 49.1061 -27.2688 15.3386C-26.2706 12.5754 -25.2656 9.82446 -24.254 7.08635C-23.7508 5.71266 -23.236 4.3599 -22.7197 3.00983L-21.1672 -1.03343L-19.6049 -5.05712C-19.0836 -6.39705 -18.5476 -7.70914 -18.0171 -9.03152C-16.9527 -11.6699 -15.882 -14.2955 -14.8044 -16.9064Z" fill="#4D0A4F"/>
<path d="M-39.2848 51.7263C-0.278515 117.674 39.2053 182.153 79.1256 245.1C99.0871 276.576 119.158 307.67 139.341 338.384C149.434 353.746 159.555 369.011 169.703 384.181C174.777 391.766 179.858 399.326 184.945 406.863L194.867 421.518L194.87 421.522L194.87 421.523L194.87 421.524L194.492 420.968L192.579 418.162L184.92 406.959C179.811 399.502 174.695 392.069 169.573 384.66C159.328 369.843 149.055 355.122 138.756 340.497C118.161 311.249 97.4501 282.377 76.6521 253.916C35.0495 196.987 -6.96966 141.613 -49.386 87.8208C-48.5895 84.7507 -47.7856 81.6905 -46.9744 78.641C-46.5723 77.112 -46.151 75.607 -45.7364 74.094L-44.4813 69.57L-43.2155 65.0622L-41.918 60.5978C-41.0469 57.6301 -40.1768 54.6623 -39.2848 51.7263Z" fill="#4D0A4F"/>
<path d="M-58.7828 127.862C-52.1981 136.487 -45.5952 145.052 -38.9766 153.556C-32.3589 162.059 -25.7272 170.498 -19.0819 178.873C-5.79128 195.624 7.55405 212.119 20.9527 228.357C34.3515 244.596 47.8026 260.576 61.3071 276.3C74.818 292.03 88.3805 307.502 101.993 322.714C88.1543 308.685 74.2654 294.916 60.3274 281.409C46.3915 267.904 32.3982 254.652 18.3754 241.68C-9.67739 215.73 -37.919 190.832 -66.3367 166.999C-65.755 163.69 -65.1655 160.388 -64.5683 157.094C-64.2733 155.444 -63.9585 153.812 -63.6503 152.175L-62.7143 147.273L-61.7667 142.384L-60.7856 137.529L-59.7925 132.686L-59.2917 130.27C-59.1251 129.464 -58.9562 128.661 -58.7828 127.862Z" fill="#4D0A4F"/>
<path d="M-72.9603 209.866C-34.3839 244.175 4.41653 277.015 43.4008 308.353C62.8946 324.023 82.4332 339.317 102.023 354.24C121.618 369.167 141.258 383.718 160.941 397.891C141.207 384.161 121.428 370.806 101.605 357.829C81.7831 344.852 61.9131 332.249 42.0175 320.035C2.21951 295.602 -37.7422 272.685 -77.8494 251.294C-77.4913 247.807 -77.125 244.326 -76.7507 240.85C-76.5669 239.11 -76.3658 237.382 -76.1677 235.651L-75.5647 230.466L-74.9497 225.289C-74.7385 223.568 -74.5192 221.853 -74.3012 220.137C-73.8618 216.708 -73.4224 213.278 -72.9603 209.866Z" fill="#4D0A4F"/>
<path d="M-81.5943 296.209C-27.3284 324.584 27.0947 350.869 81.6338 375.043C108.905 387.131 136.202 398.691 163.536 409.726C170.37 412.485 177.205 415.211 184.043 417.904L194.3 421.918L195.402 422.347L195.402 422.347L195.401 422.346L195.399 422.346L195.384 422.34L195.366 422.333L184.03 418.234C177.181 415.776 170.331 413.351 163.479 410.959C136.071 401.392 108.636 392.353 81.1926 383.849C26.2987 366.839 -28.6838 351.952 -83.7297 339.196C-83.6023 335.594 -83.4665 331.994 -83.3223 328.398C-83.2535 326.598 -83.1693 324.805 -83.085 323.012L-82.826 317.634L-82.5546 312.261C-82.4601 310.472 -82.3533 308.689 -82.25 306.904C-82.0394 303.335 -81.8262 299.767 -81.5943 296.209Z" fill="#4D0A4F"/>
<path d="M-84.5112 385.36C-40.6053 394.789 3.31989 402.506 47.2277 408.504C69.1836 411.504 91.1313 414.074 113.083 416.214C135.037 418.355 156.986 420.066 178.927 421.346C156.991 420.271 135.06 419.627 113.138 419.412C91.2155 419.198 69.2972 419.414 47.4046 420.06C3.61247 421.353 -40.1375 424.369 -83.825 429.108C-83.9337 425.458 -84.034 421.808 -84.1258 418.158C-84.1751 416.332 -84.2071 414.51 -84.2411 412.686L-84.3353 407.215L-84.4166 401.746C-84.439 399.923 -84.4498 398.103 -84.4637 396.282C-84.4878 392.64 -84.509 388.998 -84.5112 385.36Z" fill="#4D0A4F"/>
<path d="M-81.5898 475.601C-75.3626 474.857 -69.1372 474.081 -62.9137 473.276C-56.6884 472.47 -50.4646 471.633 -44.243 470.766C-31.7996 469.031 -19.3642 467.173 -6.93683 465.193C17.9179 461.232 42.7399 456.779 67.5263 451.836C92.3128 446.893 117.064 441.459 141.776 435.536C154.134 432.573 166.486 429.487 178.826 426.28L188.08 423.851L192.705 422.619L193.862 422.309L194.134 422.236H194.134L194.131 422.237L194.129 422.238L188.09 423.94L178.855 426.582C166.544 430.136 154.242 433.812 141.951 437.61C117.37 445.207 92.8223 453.295 68.3318 461.868C19.3514 479.014 -29.4541 498.115 -78.0621 519.163C-78.4084 515.548 -78.7463 511.929 -79.0757 508.308C-79.3966 504.685 -79.6958 501.054 -79.9939 497.424C-80.1415 495.609 -80.2892 493.793 -80.431 491.976L-80.8321 486.521L-81.2204 481.062L-81.4098 478.332L-81.5032 476.967L-81.5898 475.601Z" fill="#4D0A4F"/>
<path d="M-72.835 564.891C-43.9612 553.272 -15.1946 540.49 13.4029 526.586C27.7031 519.633 41.9646 512.397 56.1857 504.878C63.2968 501.119 70.3956 497.29 77.4882 493.389C84.5824 489.486 91.6663 485.513 98.7397 481.47C70.835 500.187 43.0968 520.029 15.538 540.986C1.75504 551.467 -11.9659 562.213 -25.6478 573.242C-39.3283 584.27 -52.9624 595.576 -66.5485 607.157C-68.8716 593.241 -70.9478 579.116 -72.835 564.891Z" fill="#4D0A4F"/>
<path d="M-58.4924 650.878C-4.25123 609.832 49.22 564.463 101.755 514.989C98.5389 518.396 95.3261 521.819 92.1178 525.257C88.9108 528.694 85.7074 532.147 82.5077 535.616C76.1082 542.554 69.723 549.556 63.3525 556.623C50.6115 570.756 37.9289 585.145 25.3061 599.789C12.6833 614.433 0.120354 629.331 -12.3813 644.483C-24.8831 659.635 -37.3124 675.019 -49.6856 690.664C-50.0759 689.038 -50.4705 687.423 -50.8523 685.783L-51.9926 680.858L-53.1221 675.921L-53.6826 673.448L-53.9619 672.211L-54.2357 670.965C-55.6903 664.307 -57.134 657.65 -58.4924 650.878Z" fill="#4D0A4F"/>
<path d="M-39.0808 731.371C-16.9434 706.454 4.96064 680.675 26.6216 654.046C32.0376 647.388 37.4348 640.681 42.8235 633.913C48.2119 627.146 53.5848 620.326 58.9423 613.452C69.6571 599.706 80.3098 585.748 90.8991 571.58C50.2352 633.912 10.6485 699.524 -27.8602 768.418C-29.8111 762.346 -31.7574 756.253 -33.6129 750.063L-35.0098 745.422L-35.7044 743.097C-35.9358 742.321 -36.1593 741.539 -36.3865 740.76C-37.2915 737.64 -38.1897 734.51 -39.0808 731.371Z" fill="#4D0A4F"/>
<path d="M-14.688 806.075C-5.97094 792.551 2.69985 778.831 11.3004 764.952C19.9027 751.071 28.442 737.02 36.9176 722.8C45.3932 708.581 53.8049 694.192 62.1518 679.638C70.5003 665.08 78.7921 650.341 87.0138 635.445C71.7683 668.203 56.7868 701.619 42.081 735.669C27.3858 769.699 12.9636 804.369 -1.17839 839.664C-2.34347 836.942 -3.50263 834.206 -4.65555 831.459C-5.79778 828.691 -6.9312 825.905 -8.05986 823.109C-8.62294 821.709 -9.18899 820.314 -9.74513 818.902L-11.4042 814.647L-13.0538 810.374C-13.6005 808.945 -14.1528 807.523 -14.688 806.075Z" fill="#4D0A4F"/>
<path d="M14.2393 873.088C47.7496 795.108 80.6133 715.706 112.79 634.986C128.879 594.625 144.798 553.931 160.544 512.909C168.418 492.398 176.247 471.806 184.035 451.13L189.869 435.603L194.478 423.286L194.484 423.27L194.49 423.255L189.911 435.667L184.156 451.337C176.493 472.25 168.873 493.245 161.297 514.321C146.144 556.473 131.165 598.949 116.361 641.744C101.554 684.546 86.9349 727.633 72.4861 771.052C58.0388 814.466 43.7684 858.195 29.6765 902.233C24.385 892.937 19.2471 883.174 14.2393 873.088Z" fill="#4D0A4F"/>
<path d="M46.9368 930.534C58.7729 893.288 70.4499 855.813 81.976 818.075C93.5025 780.337 104.872 742.361 116.084 704.151C127.295 665.942 138.349 627.499 149.243 588.827C160.137 550.156 170.871 511.259 181.451 472.113C160.572 550.755 140.33 630.31 120.734 710.742C110.935 750.964 101.304 791.378 91.8343 832.012C82.3647 872.646 73.0576 913.494 63.9144 954.552L61.7561 951.697C61.0378 950.74 60.3191 949.787 59.6076 948.8C58.1816 946.841 56.7596 944.866 55.342 942.875C54.6318 941.886 53.9283 940.869 53.2254 939.849L51.1193 936.78L49.0198 933.688C48.3216 932.652 47.6303 931.588 46.9368 930.534Z" fill="#4D0A4F"/>
<path d="M82.6104 977.155C90.9599 940.39 99.1567 903.466 107.206 866.351C115.256 829.233 123.155 791.948 130.902 754.5C138.649 717.052 146.244 679.44 153.686 641.67C161.128 603.901 168.416 565.974 175.556 527.869C161.855 604.626 148.767 682.014 136.296 759.997C130.06 798.996 123.983 838.112 118.06 877.381C112.138 916.649 106.37 956.062 100.758 995.614L98.4635 993.462C97.6994 992.74 96.9347 992.022 96.1755 991.268C94.655 989.775 93.1373 988.265 91.6228 986.738C90.8645 985.981 90.1112 985.194 89.3583 984.405L87.1016 982.028L84.8498 979.625C84.1006 978.817 83.3562 977.982 82.6104 977.155Z" fill="#4D0A4F"/>
<path d="M120.514 1012.15C124.182 989.88 127.757 967.56 131.246 945.138C134.734 922.718 138.132 900.228 141.44 877.672C144.747 855.115 147.963 832.492 151.088 809.804C152.65 798.459 154.19 787.099 155.707 775.723C157.224 764.344 158.719 752.94 160.191 741.525C156.003 788.293 152.182 835.3 148.729 882.526C147.002 906.147 145.372 929.784 143.832 953.49C142.292 977.193 140.845 1000.95 139.491 1024.75C133.111 1021.06 126.785 1016.82 120.514 1012.15Z" fill="#4D0A4F"/>
<path d="M159.95 1034.94C161.785 1010.14 163.571 985.321 165.308 960.482C166.176 948.062 167.032 935.637 167.876 923.207C168.72 910.773 169.552 898.333 170.371 885.889C173.648 836.11 176.729 786.252 179.611 736.318C182.494 686.385 185.179 636.377 187.666 586.3C188.909 561.261 190.103 536.205 191.248 511.133C192.393 486.052 193.488 460.954 194.534 435.84C190.428 536.297 187.114 637.032 184.593 737.998C184.278 750.619 183.976 763.244 183.686 775.872C183.396 788.495 183.118 801.122 182.853 813.753C182.322 839.013 181.842 864.288 181.411 889.576C180.549 940.151 179.886 990.779 179.422 1041.45C172.906 1039.81 166.413 1037.59 159.95 1034.94Z" fill="#4D0A4F"/>
<path d="M469.909 570.425C442.973 554.026 415.991 538.146 388.966 522.786C361.941 507.426 334.879 492.589 307.761 478.266C280.648 463.945 253.495 450.146 226.306 436.871C219.508 433.552 212.709 430.266 205.907 427.013L195.703 422.157L194.479 421.578L194.479 421.578L194.48 421.579L194.482 421.58L194.498 421.587L194.514 421.594L205.933 426.684C212.75 429.704 219.569 432.691 226.39 435.645C253.675 447.462 280.993 458.754 308.343 469.519C335.692 480.284 363.073 490.522 390.481 500.233C417.888 509.943 445.312 519.121 472.767 527.771C472.676 529.562 472.589 531.354 472.489 533.141L472.178 538.495L471.854 543.845C471.745 545.627 471.634 547.409 471.509 549.183C471.266 552.735 471.013 556.284 470.753 559.828C470.626 561.602 470.483 563.366 470.341 565.132L469.909 570.425Z" fill="#4D0A4F"/>
<path d="M200.244 -199.703C197.741 -98.7947 196.035 2.27164 195.127 103.449C194.673 154.029 194.419 204.679 194.364 255.331C194.309 305.987 194.454 356.665 194.798 407.359C194.416 356.657 193.835 305.933 193.055 255.192C192.275 204.466 191.295 153.729 190.115 102.979C187.755 1.48537 184.597 -100.071 180.641 -201.585C182.274 -201.558 183.908 -201.474 185.542 -201.392L187.993 -201.245L190.444 -201.018L192.895 -200.762C193.712 -200.667 194.529 -200.589 195.345 -200.463C196.978 -200.229 198.611 -199.976 200.244 -199.703Z" fill="#4D0A4F"/>
<path d="M159.866 -200.204C162.114 -131.275 164.903 -62.4083 168.231 6.36438C169.895 40.7434 171.695 75.1262 173.629 109.481C175.564 143.835 177.633 178.161 179.836 212.455C177.089 178.283 174.208 144.142 171.193 110.036C168.177 75.926 165.03 41.8873 161.748 7.86703C155.184 -60.1638 148.085 -128.042 140.453 -195.732C142.063 -196.217 143.674 -196.681 145.287 -197.126C146.094 -197.344 146.9 -197.577 147.709 -197.769L150.135 -198.34L152.563 -198.882C153.373 -199.059 154.183 -199.232 154.995 -199.373C156.617 -199.669 158.241 -199.946 159.866 -200.204Z" fill="#4D0A4F"/>
<path d="M120.13 -187.612C129.518 -97.648 139.604 -8.00545 150.382 81.2747C153.076 103.595 155.814 125.892 158.595 148.166C159.986 159.303 161.387 170.434 162.799 181.56C164.211 192.688 165.635 203.813 167.069 214.931C172.806 259.402 178.715 303.778 184.795 348.054C178.528 303.888 172.088 259.82 165.477 215.852C158.866 171.884 152.083 128.016 145.134 84.2816C131.234 -3.20107 116.652 -90.2575 101.395 -176.847C102.939 -177.855 104.486 -178.844 106.036 -179.815C106.809 -180.308 107.588 -180.769 108.368 -181.226L110.708 -182.589L113.052 -183.923L113.639 -184.252L114.228 -184.566L115.406 -185.189C116.979 -186.015 118.553 -186.823 120.13 -187.612Z" fill="#4D0A4F"/>
<path d="M82.0679 -162.228C84.3296 -148.3 86.6176 -134.393 88.9317 -120.507C91.2461 -106.621 93.5903 -92.7438 95.9583 -78.8951C100.696 -51.1946 105.537 -23.5814 110.481 3.94125C115.426 31.4639 120.474 58.8961 125.625 86.2348C128.201 99.9047 130.802 113.549 133.429 127.174C136.058 140.804 138.712 154.411 141.392 167.994C129.384 114.911 116.969 62.2149 104.153 9.92926C97.7423 -16.22 91.2397 -42.2406 84.6373 -68.1588C78.0346 -94.0775 71.3326 -119.891 64.532 -145.596L66.683 -147.826C67.4007 -148.565 68.1183 -149.303 68.8462 -150.012C70.2974 -151.442 71.7523 -152.855 73.2107 -154.252L74.3052 -155.295L75.4086 -156.31L77.6204 -158.318L79.8375 -160.3C80.2079 -160.627 80.5764 -160.959 80.949 -161.278L82.0679 -162.228Z" fill="#4D0A4F"/>
</g>
<g opacity="0.72">
<path d="M94.6117 -174.061C99.4903 -139.909 104.495 -105.851 109.625 -71.8908C114.755 -37.9316 120.01 -4.07338 125.394 29.713C136.159 97.2704 147.426 164.419 159.189 231.129C156.007 214.658 152.793 198.213 149.549 181.796C146.306 165.384 143.032 149.006 139.727 132.653C133.118 99.9476 126.384 67.3552 119.527 34.8791C112.67 2.40297 105.69 -29.9568 98.5877 -62.1965C95.0366 -78.3145 91.4539 -94.4102 87.8424 -110.461C84.2311 -126.511 80.5891 -142.531 76.9165 -158.519L78.0084 -159.588C78.3728 -159.942 78.7388 -160.281 79.1043 -160.626L81.301 -162.675L83.5028 -164.698L84.6057 -165.697L85.712 -166.663C87.1881 -167.947 88.6674 -169.213 90.1497 -170.462C90.8904 -171.094 91.6338 -171.69 92.3777 -172.285L94.6117 -174.061Z" fill="#390639"/>
<path d="M58.6566 -138.814C76.4694 -57.7598 94.8856 22.599 113.896 102.225C123.4 142.032 133.059 181.681 142.865 221.141C152.671 260.6 162.624 299.871 172.724 338.949C162.419 300.134 151.966 261.507 141.368 223.074C138.718 213.466 136.059 203.869 133.391 194.286C130.725 184.706 128.049 175.138 125.364 165.582C119.993 146.471 114.587 127.409 109.144 108.396C87.3723 32.3441 65.02 -42.9154 42.0972 -117.347C43.4516 -119.236 44.8109 -121.107 46.1747 -122.963L47.1984 -124.351L47.7108 -125.042L48.2266 -125.72L50.2943 -128.415L52.3686 -131.084C53.0608 -131.971 53.754 -132.854 54.4538 -133.707C55.8504 -135.426 57.2515 -137.129 58.6566 -138.814Z" fill="#390639"/>
<path d="M25.3253 -91.5923C39.2482 -43.3349 53.5229 4.36257 68.1416 51.4755C75.4523 75.0359 82.8434 98.4341 90.3301 121.714C97.8159 144.99 105.387 168.119 113.042 191.096C104.816 169.15 96.5067 147.355 88.1141 125.715C79.7212 104.073 71.245 82.586 62.6949 61.2769C45.5903 18.6473 28.1576 -23.3546 10.4045 -64.7089C11.6145 -67.0398 12.8302 -69.3561 14.0514 -71.657C14.6598 -72.8131 15.2777 -73.9441 15.897 -75.0718L17.7576 -78.4468L19.6263 -81.7989C20.2497 -82.9146 20.885 -83.9975 21.5159 -85.0925C22.7804 -87.2746 24.0501 -89.4421 25.3253 -91.5923Z" fill="#390639"/>
<path d="M-4.42246 -33.5762C28.334 46.4315 61.6816 125.179 95.5852 202.59C112.538 241.298 129.63 279.673 146.864 317.717C155.483 336.745 164.136 355.689 172.824 374.548C177.168 383.978 181.521 393.387 185.882 402.775L194.391 421.041L194.393 421.046L194.393 421.047L194.394 421.047L194.069 420.354L192.427 416.851L185.849 402.859C181.46 393.542 177.062 384.245 172.656 374.969C163.843 356.418 154.996 337.951 146.114 319.569C128.353 282.807 110.448 246.369 92.4223 210.303C56.3657 138.159 19.7706 67.3838 -17.3464 -1.98914C-16.3086 -4.70023 -15.2644 -7.39867 -14.2139 -10.0836C-13.6917 -11.4316 -13.1528 -12.7488 -12.6196 -14.0762L-11.0106 -18.0395L-9.39223 -21.9827L-7.74651 -25.871C-6.64421 -28.4523 -5.54262 -31.0342 -4.42246 -33.5762Z" fill="#390639"/>
<path d="M-29.9091 33.7539C-24.1699 44.7929 -18.408 55.7804 -12.6254 66.7135C-6.8437 77.6453 -1.04307 88.5201 4.77635 99.3373C16.4152 120.972 28.1291 142.376 39.9167 163.549C51.7044 184.721 63.565 205.66 75.4996 226.367C87.4397 247.083 99.452 267.566 111.535 287.811C99.1315 268.641 86.6564 249.708 74.1118 231.013C61.5688 212.321 48.9484 193.855 36.2756 175.654C10.9237 139.243 -14.7014 103.793 -40.5881 69.3216C-39.7411 66.292 -38.887 63.2726 -38.0261 60.2645C-37.5989 58.7557 -37.1537 57.2728 -36.7147 55.7813L-35.3871 51.3226L-34.0492 46.8808L-32.6813 42.4853L-31.3025 38.1073L-30.6094 35.9248C-30.3787 35.1968 -30.1459 34.4723 -29.9091 33.7539Z" fill="#390639"/>
<path d="M-50.6667 108.921C-15.6894 157.638 19.6305 204.997 55.2561 250.95C73.0704 273.929 90.9601 296.555 108.931 318.836C126.907 341.121 144.958 363.056 163.083 384.636C144.871 363.472 126.583 342.661 108.221 322.203C89.8601 301.747 71.4205 281.64 52.9234 261.905C15.9227 222.429 -21.365 184.38 -58.9231 147.776C-58.2806 144.486 -57.6306 141.203 -56.9729 137.929C-56.6473 136.289 -56.3057 134.667 -55.9668 133.041L-54.9422 128.175L-53.9064 123.321C-53.5554 121.71 -53.1971 120.108 -52.84 118.504C-52.1225 115.301 -51.405 112.098 -50.6667 108.921Z" fill="#390639"/>
<path d="M-66.3485 190.507C-15.4842 239.474 35.7088 286.447 87.1918 331.389C112.935 353.861 138.747 375.823 164.64 397.284C171.113 402.65 177.591 407.984 184.074 413.286L193.801 421.214L194.847 422.064L194.846 422.063L194.845 422.063L194.844 422.061L194.829 422.049L194.813 422.036L184.034 413.605C177.52 408.53 171.003 403.486 164.481 398.475C138.393 378.429 112.235 358.893 86.0235 339.88C33.5939 301.848 -19.0999 265.871 -72.0339 231.965C-71.6081 228.471 -71.1741 224.983 -70.7322 221.5C-70.5143 219.756 -70.2821 218.025 -70.0495 216.294L-69.3464 211.104L-68.6313 205.924C-68.3892 204.201 -68.1355 202.489 -67.885 200.773C-67.3804 197.344 -66.8733 193.917 -66.3485 190.507Z" fill="#390639"/>
<path d="M-76.6563 277.073C-34.3726 303.384 8.07301 328.018 50.6451 350.955C71.933 362.424 93.2489 373.468 114.605 384.091C135.963 394.715 157.352 404.914 178.768 414.686C157.339 405.118 135.879 395.975 114.391 387.258C92.9035 378.541 71.3838 370.249 49.8534 362.391C6.7857 346.671 -36.3845 332.663 -79.6372 320.374C-79.439 316.741 -79.2325 313.112 -79.0177 309.486C-78.9136 307.671 -78.7927 305.865 -78.6738 304.058L-78.3093 298.64L-77.9322 293.228C-77.8019 291.427 -77.6605 289.632 -77.522 287.835C-77.2414 284.244 -76.9581 280.652 -76.6563 277.073Z" fill="#390639"/>
<path d="M-81.328 366.977C-75.1569 368.661 -68.9852 370.314 -62.8127 371.936C-56.6385 373.559 -50.4631 375.151 -44.2873 376.711C-31.9356 379.833 -19.5814 382.83 -7.22485 385.704C17.4882 391.451 42.2102 396.702 66.9383 401.457C91.6664 406.211 116.401 410.469 141.138 414.231C153.509 416.112 165.884 417.869 178.257 419.501L187.538 420.702L192.178 421.285L193.338 421.429L193.612 421.463H193.611L193.609 421.463L193.606 421.462L187.54 420.794L178.26 419.81C165.886 418.529 153.511 417.372 141.136 416.34C116.388 414.275 91.6315 412.707 66.8904 411.638C17.4092 409.5 -32.0641 409.353 -81.5061 411.199C-81.5438 407.508 -81.573 403.817 -81.5937 400.127C-81.6059 396.438 -81.5962 392.751 -81.5854 389.065C-81.5786 387.221 -81.5718 385.378 -81.5591 383.536L-81.4968 378.014L-81.4219 372.493L-81.3796 369.734L-81.3571 368.355L-81.328 366.977Z" fill="#390639"/>
<path d="M-80.1975 458.209C-50.9023 457.983 -21.6148 456.571 7.60031 453.989C22.2094 452.698 36.8042 451.113 51.383 449.235C58.673 448.295 65.9566 447.284 73.2403 446.197C80.5255 445.111 87.8066 443.951 95.0833 442.719C66.1457 450.304 37.2775 459.06 8.49216 468.982C-5.9043 473.945 -20.2619 479.192 -34.6051 484.733C-48.9467 490.274 -63.2658 496.105 -77.561 502.226C-78.6774 487.635 -79.5344 472.935 -80.1975 458.209Z" fill="#390639"/>
<path d="M-73.3101 548.359C-16.6716 529.028 39.5727 505.145 95.2411 476.861C91.8018 478.964 88.3642 481.085 84.9296 483.222C81.4966 485.359 78.0657 487.512 74.637 489.684C67.7796 494.026 60.931 498.437 54.0913 502.916C40.4121 511.875 26.7686 521.109 13.1627 530.616C-0.443314 540.124 -14.0118 549.906 -27.5415 559.96C-41.0711 570.014 -54.5491 580.325 -67.9939 590.914C-68.241 589.163 -68.4931 587.421 -68.7307 585.66L-69.4379 580.373L-70.1335 575.078L-70.4769 572.428L-70.6475 571.103L-70.8121 569.77C-71.6828 562.657 -72.5431 555.549 -73.3101 548.359Z" fill="#390639"/>
<path d="M-60.9907 635.073C-37.1928 619.151 -13.552 602.291 9.92126 584.5C15.7905 580.052 21.6453 575.548 27.4968 570.982C33.3479 566.416 39.1885 561.791 45.0181 557.109C56.6775 547.744 68.2936 538.146 79.865 528.318C34.7677 573.857 -9.54683 623.04 -53.0779 675.87C-54.4847 669.14 -55.8849 662.391 -57.1881 655.582L-58.1709 650.475L-58.6581 647.918C-58.8202 647.065 -58.9743 646.209 -59.1321 645.355C-59.7591 641.934 -60.3787 638.506 -60.9907 635.073Z" fill="#390639"/>
<path d="M-43.3013 718.024C-33.6203 708.103 -23.9684 697.971 -14.372 687.655C-4.77387 677.338 4.77684 666.829 14.279 656.129C23.7811 645.43 33.2347 634.54 42.6387 623.461C52.0444 612.38 61.4098 601.098 70.7193 589.634C53.0274 615.943 35.5396 643.002 18.2694 670.792C1.011 698.565 -16.0329 727.075 -32.854 756.308C-33.7696 753.178 -34.6782 750.037 -35.5797 746.887C-36.469 743.721 -37.3481 740.54 -38.2218 737.352C-38.6573 735.757 -39.0961 734.165 -39.5237 732.56L-40.7958 727.731L-42.0571 722.887C-42.4741 721.269 -42.8973 719.657 -43.3013 718.024Z" fill="#390639"/>
<path d="M-20.5212 795.168C18.8654 731.461 57.7365 666.104 96.0441 599.184C115.198 565.724 134.213 531.869 153.087 497.625C162.524 480.503 171.925 463.284 181.291 445.967L188.311 432.957L193.861 422.628L193.869 422.615L193.875 422.602L188.347 433.036L181.393 446.217C172.129 463.816 162.9 481.512 153.707 499.305C135.322 534.891 117.079 570.863 98.982 607.217C80.8819 643.577 62.9417 680.289 45.141 717.394C27.3421 754.496 9.69034 791.975 -7.812 829.828C-12.2264 818.631 -16.4511 807.033 -20.5212 795.168Z" fill="#390639"/>
<path d="M6.75635 864.365C21.4785 832.319 36.0637 799.985 50.5228 767.335C64.9823 734.683 79.308 701.738 93.4979 668.501C107.688 635.264 121.742 601.736 135.659 567.922C149.576 534.108 163.355 500.008 177.004 465.606C149.953 534.865 123.451 605.27 97.5095 676.788C84.5369 712.553 71.7134 748.572 59.0296 784.869C46.346 821.167 33.8039 857.738 21.4051 894.579L19.5264 890.933C18.9016 889.714 18.2762 888.497 17.6607 887.25C16.4255 884.77 15.1955 882.275 13.9711 879.767C13.3569 878.518 12.7519 877.244 12.1475 875.968L10.3377 872.133L8.53639 868.276C7.93789 866.986 7.3486 865.672 6.75635 864.365Z" fill="#390639"/>
<path d="M37.8579 924.068C49.1196 891.141 60.2447 857.999 71.2413 824.613C82.2387 791.223 93.1018 757.611 103.829 723.778C114.557 689.946 125.149 655.894 135.604 621.627C146.059 587.361 156.377 552.88 166.564 518.166C146.712 588.357 127.409 659.405 108.662 731.279C99.2864 767.222 90.058 803.343 80.9676 839.675C71.8775 876.005 62.9277 912.537 54.1191 949.268L52.0474 946.261C51.3582 945.254 50.668 944.251 49.9863 943.215C48.6194 941.156 47.2567 939.082 45.8985 936.992C45.2178 935.953 44.5446 934.887 43.8719 933.819L41.8567 930.604L39.8485 927.367C39.181 926.281 38.5205 925.171 37.8579 924.068Z" fill="#390639"/>
<path d="M72.1177 973.194C77.5756 952.715 82.9473 932.146 88.2427 911.443C93.5376 890.742 98.7495 869.937 103.878 849.031C109.006 828.125 114.051 807.118 119.012 786.012C121.492 775.459 123.951 764.882 126.389 754.28C128.828 743.674 131.248 733.036 133.645 722.379C125.63 766.759 117.955 811.518 110.623 856.635C106.956 879.201 103.382 901.819 99.8917 924.542C96.4016 947.261 92.9981 970.067 89.6814 992.958C83.7305 986.853 77.8796 980.222 72.1177 973.194Z" fill="#390639"/>
<path d="M108.901 1010.92C112.773 987.235 116.598 963.513 120.376 939.753C122.265 927.872 124.143 915.982 126.009 904.082C127.875 892.178 129.73 880.263 131.573 868.34C138.946 820.644 146.132 772.793 153.131 724.792C160.129 676.79 166.94 628.639 173.563 580.343C176.874 556.195 180.138 532.01 183.355 507.791C186.573 483.563 189.744 459.299 192.868 435C180.449 532.227 168.784 630.034 157.878 728.378C156.515 740.671 155.163 752.972 153.824 765.281C152.485 777.587 151.158 789.9 149.843 802.222C147.213 826.865 144.63 851.542 142.095 876.25C137.025 925.667 132.146 975.212 127.458 1024.88C121.203 1020.74 115.02 1016.04 108.901 1010.92Z" fill="#390639"/>
<path d="M147.556 1036.5C149.867 1011.68 152.13 986.83 154.344 961.959C156.558 937.09 158.723 912.192 160.841 887.261C165.077 837.405 169.118 787.454 172.963 737.415C176.809 687.377 180.46 637.25 183.916 587.04C185.643 561.935 187.322 536.809 188.952 511.664C190.582 486.513 192.164 461.336 193.697 436.144C187.638 536.923 182.361 638.034 177.87 739.43C175.624 790.136 173.576 840.874 171.724 891.694C169.873 942.511 168.218 993.393 166.76 1044.33C160.322 1042.26 153.919 1039.6 147.556 1036.5Z" fill="#390639"/>
<path d="M187.334 1049.3C188.539 1014.78 189.609 980.249 190.546 945.682C191.482 911.104 192.284 876.505 192.952 841.888C193.62 807.27 194.153 772.635 194.551 737.987C194.95 703.334 195.214 668.689 195.344 633.99C196.172 703.422 197.538 772.897 199.441 842.382C199.917 859.754 200.427 877.125 200.97 894.497C201.513 911.863 202.09 929.224 202.7 946.587C203.921 981.312 205.275 1016.04 206.765 1050.75L204.337 1050.75L203.123 1050.74L201.909 1050.69C200.289 1050.62 198.67 1050.53 197.05 1050.43C196.24 1050.38 195.43 1050.29 194.621 1050.21L192.191 1049.95L189.762 1049.66C188.952 1049.55 188.143 1049.42 187.334 1049.3Z" fill="#390639"/>
<path d="M386.087 892.639C370.353 851.322 354.469 810.314 338.436 769.62C322.402 728.924 306.225 688.554 289.889 648.472C273.555 608.397 257.075 568.64 240.451 529.205C232.139 509.488 223.79 489.851 215.406 470.295C211.214 460.518 207.013 450.76 202.803 441.023L194.723 422.386L194.722 422.383L194.721 422.382L194.721 422.382L194.721 422.382L194.9 422.792L196.486 426.428L202.84 440.952C207.08 450.625 211.331 460.279 215.588 469.909C224.102 489.167 232.651 508.344 241.237 527.44C258.408 565.631 275.721 603.495 293.175 641.03C310.63 678.564 328.224 715.767 345.958 752.636C354.826 771.073 363.725 789.418 372.657 807.677C381.589 825.937 390.556 844.113 399.557 862.205C395.232 872.7 390.753 882.886 386.087 892.639Z" fill="#390639"/>
<path d="M451.767 674.237C426.712 647.654 401.569 621.564 376.342 595.969C351.113 570.374 325.804 545.278 300.399 520.667C274.997 496.059 249.513 471.949 223.949 448.341C217.559 442.439 211.163 436.568 204.762 430.729L195.157 421.994L194.005 420.949L194.005 420.949L194.006 420.95L194.008 420.952L194.023 420.965L194.038 420.979L204.815 430.417C211.25 436.032 217.69 441.616 224.135 447.169C249.914 469.38 275.77 491.087 301.7 512.288C327.631 533.489 353.635 554.185 379.712 574.371C405.787 594.557 431.923 614.225 458.133 633.387C457.894 635.113 457.659 636.843 457.411 638.562L456.659 643.708L455.895 648.845C455.639 650.556 455.381 652.266 455.111 653.963C454.575 657.362 454.031 660.755 453.48 664.14C453.207 665.836 452.919 667.516 452.633 669.198L451.767 674.237Z" fill="#390639"/>
<path d="M211.986 -204.131C208.434 -135.453 205.417 -66.6264 202.938 2.31691C201.698 36.7811 200.592 71.3023 199.62 105.848C198.649 140.392 197.811 174.961 197.108 209.552C197.268 174.871 197.293 140.168 197.184 105.448C197.075 70.7238 196.831 36.0188 196.452 1.2793C195.696 -68.1897 194.401 -137.716 192.568 -207.265C194.188 -207.117 195.807 -206.948 197.427 -206.76C198.237 -206.662 199.047 -206.579 199.856 -206.454L202.284 -206.073L204.711 -205.664C205.52 -205.524 206.329 -205.38 207.137 -205.204C208.754 -204.865 210.37 -204.508 211.986 -204.131Z" fill="#390639"/>
<path d="M171.953 -207.161C173.649 -115.021 176.055 -22.9259 179.171 69.0811C179.95 92.0828 180.773 115.079 181.64 138.069C182.074 149.564 182.519 161.058 182.975 172.55C183.431 184.045 183.898 195.541 184.377 207.034C186.29 253.007 188.38 298.952 190.646 344.865C188.187 298.988 185.551 253.138 182.738 207.323C179.925 161.505 176.935 115.72 173.771 70.0027C167.443 -21.4476 160.41 -112.743 152.675 -203.841C154.274 -204.234 155.874 -204.607 157.475 -204.961C158.275 -205.145 159.078 -205.297 159.881 -205.444L162.29 -205.876L164.701 -206.28L165.304 -206.375L165.908 -206.456L167.117 -206.611C168.728 -206.814 170.34 -206.997 171.953 -207.161Z" fill="#390639"/>
<path d="M132.494 -196.959C133.55 -182.381 134.632 -167.813 135.743 -153.256C136.853 -138.698 137.994 -124.137 139.16 -109.595C141.493 -80.5082 143.936 -51.4665 146.488 -22.4737C149.04 6.51901 151.701 35.463 154.47 64.3546C155.855 78.8012 157.267 93.2319 158.706 107.654C160.146 122.083 161.614 136.498 163.108 150.899C155.762 94.0221 147.985 37.3674 139.779 -19.0388C135.675 -47.2492 131.469 -75.3687 127.157 -103.426C122.845 -131.485 118.427 -159.478 113.902 -187.403L116.199 -188.761C116.965 -189.21 117.73 -189.658 118.503 -190.073C120.046 -190.916 121.592 -191.742 123.139 -192.55L124.3 -193.152L125.467 -193.722L127.805 -194.839L130.145 -195.929C130.536 -196.106 130.925 -196.29 131.317 -196.459L132.494 -196.959Z" fill="#390639"/>
</g>
</g>
<mask id="mask1_28_1359" style="mask-type:luminance" maskUnits="userSpaceOnUse" x="195" y="0" width="195" height="844">
<path d="M195 844H390L390 0H195L195 844Z" fill="white"/>
</mask>
<g mask="url(#mask1_28_1359)">
<g opacity="0.27">
<path d="M343.376 -124.97C335.705 -93.2777 327.917 -61.7275 320.013 -30.3224C312.11 1.08196 304.092 32.3385 295.953 63.4743C279.678 125.731 262.943 187.392 245.755 248.428C250.273 233.465 254.819 218.541 259.394 203.656C263.967 188.777 268.567 173.941 273.196 159.143C282.453 129.548 291.824 100.111 301.306 70.8374C310.788 41.5634 320.382 12.4518 330.087 -16.4942C334.939 -30.9654 339.821 -45.4025 344.727 -59.7844C349.632 -74.1654 354.566 -88.5042 359.527 -102.801L358.539 -104.277C358.21 -104.767 357.877 -105.242 357.546 -105.724L355.551 -108.594L353.548 -111.439L352.545 -112.852L351.534 -114.232C350.186 -116.069 348.833 -117.89 347.476 -119.694C346.798 -120.604 346.115 -121.48 345.431 -122.355L343.376 -124.97Z" fill="#4D0A4F"/>
<path d="M375.886 -76.3165C351.53 -3.52642 326.637 68.3451 301.22 139.265C288.513 174.719 275.667 209.958 262.691 244.954C249.715 279.949 236.61 314.701 223.376 349.207C236.79 315.04 250.334 281.115 264.005 247.438C267.423 239.018 270.849 230.614 274.283 222.226C277.715 213.841 281.156 205.472 284.604 197.118C291.501 180.41 298.43 163.765 305.39 147.183C333.231 80.8526 361.579 15.5276 390.42 -48.7618C389.242 -51.1457 388.058 -53.5155 386.868 -55.8706L385.975 -57.6341L385.528 -58.5137L385.076 -59.3812L383.262 -62.8355L381.44 -66.2675C380.831 -67.4089 380.222 -68.5473 379.603 -69.6584C378.369 -71.8928 377.13 -74.1123 375.886 -76.3165Z" fill="#4D0A4F"/>
<path d="M404.804 -16.9064C387.032 25.1404 368.959 66.4994 350.596 107.15C341.412 127.478 332.163 147.616 322.83 167.6C313.498 187.581 304.094 207.384 294.62 227.005C304.571 208.62 314.591 190.416 324.681 172.397C334.771 154.377 344.93 136.541 355.147 118.909C375.586 83.6348 396.297 49.1059 417.269 15.3386C416.271 12.5754 415.266 9.82446 414.254 7.08635C413.751 5.71266 413.236 4.3599 412.72 3.00983L411.167 -1.03343L409.605 -5.05712C409.084 -6.39705 408.548 -7.70914 408.017 -9.03152C406.953 -11.6699 405.882 -14.2955 404.804 -16.9064Z" fill="#4D0A4F"/>
<path d="M429.285 51.7263C390.279 117.674 350.795 182.152 310.875 245.1C290.913 276.576 270.842 307.67 250.66 338.384C240.566 353.746 230.445 369.011 220.297 384.181C215.223 391.766 210.142 399.326 205.055 406.863L195.133 421.518L195.131 421.522L195.13 421.523L195.13 421.524L195.508 420.968L197.421 418.162L205.08 406.959C210.189 399.502 215.305 392.069 220.427 384.66C230.673 369.843 240.945 355.122 251.244 340.497C271.839 311.249 292.55 282.377 313.348 253.916C354.951 196.987 396.97 141.613 439.386 87.8207C438.59 84.7505 437.786 81.6903 436.975 78.6408C436.572 77.1118 436.151 75.6068 435.737 74.0938L434.482 69.5698L433.216 65.062L431.918 60.5976C431.047 57.6301 430.177 54.6623 429.285 51.7263Z" fill="#4D0A4F"/>
<path d="M448.783 127.862C442.198 136.487 435.595 145.052 428.977 153.556C422.359 162.059 415.727 170.498 409.082 178.873C395.791 195.624 382.446 212.119 369.047 228.357C355.648 244.596 342.197 260.576 328.693 276.3C315.182 292.03 301.62 307.502 288.007 322.714C301.846 308.685 315.735 294.916 329.673 281.409C343.608 267.904 357.602 254.652 371.625 241.68C399.677 215.73 427.919 190.832 456.337 166.999C455.755 163.69 455.165 160.388 454.568 157.094C454.273 155.444 453.958 153.812 453.65 152.175L452.714 147.273L451.767 142.384L450.786 137.529L449.793 132.686L449.292 130.27C449.125 129.464 448.956 128.661 448.783 127.862Z" fill="#4D0A4F"/>
<path d="M462.961 209.866C424.384 244.175 385.584 277.015 346.6 308.353C327.106 324.023 307.567 339.317 287.977 354.24C268.383 369.167 248.743 383.718 229.059 397.891C248.793 384.161 268.573 370.806 288.395 357.829C308.217 344.852 328.087 332.249 347.983 320.035C387.781 295.602 427.742 272.685 467.85 251.294C467.492 247.807 467.125 244.326 466.751 240.85C466.567 239.11 466.366 237.382 466.168 235.651L465.565 230.466L464.95 225.289C464.739 223.568 464.52 221.853 464.302 220.137C463.862 216.708 463.423 213.278 462.961 209.866Z" fill="#4D0A4F"/>
<path d="M471.594 296.209C417.328 324.584 362.905 350.869 308.366 375.043C281.095 387.131 253.798 398.691 226.464 409.726C219.63 412.485 212.795 415.211 205.957 417.904L195.7 421.918L194.598 422.347L194.598 422.347L194.599 422.346L194.601 422.346L194.616 422.34L194.634 422.333L205.97 418.234C212.819 415.776 219.669 413.351 226.521 410.959C253.929 401.392 281.364 392.353 308.807 383.849C363.701 366.839 418.684 351.952 473.73 339.196C473.602 335.594 473.466 331.994 473.322 328.398C473.253 326.598 473.169 324.805 473.085 323.012L472.826 317.634L472.555 312.261C472.46 310.472 472.353 308.689 472.25 306.904C472.039 303.335 471.826 299.767 471.594 296.209Z" fill="#4D0A4F"/>
<path d="M474.511 385.36C430.605 394.789 386.68 402.506 342.772 408.504C320.816 411.504 298.869 414.074 276.917 416.214C254.963 418.355 233.014 420.066 211.073 421.346C233.009 420.271 254.94 419.627 276.862 419.412C298.785 419.198 320.703 419.414 342.595 420.06C386.388 421.353 430.138 424.369 473.825 429.108C473.934 425.458 474.034 421.808 474.126 418.158C474.175 416.332 474.207 414.51 474.241 412.686L474.335 407.215L474.417 401.746C474.439 399.923 474.45 398.103 474.464 396.282C474.488 392.64 474.509 388.998 474.511 385.36Z" fill="#4D0A4F"/>
<path d="M471.59 475.601C465.363 474.857 459.137 474.081 452.914 473.276C446.689 472.47 440.465 471.633 434.243 470.766C421.8 469.031 409.364 467.173 396.937 465.193C372.082 461.232 347.26 456.779 322.474 451.836C297.687 446.893 272.937 441.459 248.224 435.536C235.866 432.573 223.514 429.487 211.174 426.28L201.92 423.851L197.295 422.619L196.138 422.309L195.866 422.236H195.866L195.869 422.237L195.872 422.238L201.91 423.94L211.145 426.582C223.457 430.136 235.758 433.812 248.049 437.61C272.63 445.207 297.178 453.295 321.668 461.868C370.649 479.014 419.454 498.115 468.062 519.163C468.408 515.548 468.746 511.929 469.076 508.308C469.397 504.685 469.696 501.054 469.994 497.424C470.142 495.609 470.289 493.793 470.431 491.976L470.832 486.521L471.22 481.062L471.41 478.332L471.503 476.967L471.59 475.601Z" fill="#4D0A4F"/>
<path d="M462.835 564.891C433.961 553.272 405.195 540.49 376.597 526.586C362.297 519.633 348.035 512.397 333.814 504.878C326.703 501.119 319.604 497.29 312.512 493.389C305.418 489.486 298.334 485.513 291.26 481.47C319.165 500.187 346.903 520.029 374.462 540.986C388.245 551.467 401.966 562.213 415.648 573.242C429.328 584.27 442.962 595.576 456.548 607.157C458.872 593.241 460.948 579.116 462.835 564.891Z" fill="#4D0A4F"/>
<path d="M448.493 650.878C394.252 609.832 340.78 564.463 288.245 514.989C291.461 518.396 294.674 521.819 297.882 525.257C301.089 528.694 304.293 532.147 307.493 535.616C313.892 542.554 320.277 549.556 326.648 556.623C339.389 570.756 352.071 585.145 364.694 599.789C377.317 614.433 389.88 629.331 402.382 644.483C414.883 659.635 427.313 675.019 439.686 690.664C440.076 689.038 440.471 687.423 440.853 685.783L441.993 680.858L443.122 675.921L443.683 673.448L443.962 672.211L444.236 670.965C445.691 664.307 447.134 657.65 448.493 650.878Z" fill="#4D0A4F"/>
<path d="M429.081 731.371C406.944 706.454 385.04 680.675 363.379 654.046C357.963 647.388 352.565 640.681 347.177 633.913C341.788 627.146 336.415 620.326 331.058 613.452C320.343 599.706 309.69 585.748 299.101 571.58C339.765 633.912 379.352 699.524 417.86 768.418C419.811 762.346 421.758 756.253 423.613 750.063L425.01 745.422L425.705 743.097C425.936 742.321 426.16 741.54 426.387 740.76C427.292 737.64 428.19 734.51 429.081 731.371Z" fill="#4D0A4F"/>
<path d="M404.688 806.075C395.971 792.551 387.3 778.831 378.7 764.952C370.097 751.071 361.558 737.02 353.082 722.8C344.607 708.581 336.195 694.192 327.848 679.638C319.5 665.08 311.208 650.341 302.986 635.445C318.232 668.203 333.213 701.619 347.919 735.669C362.614 769.699 377.036 804.369 391.178 839.664C392.344 836.942 393.503 834.206 394.656 831.459C395.798 828.691 396.931 825.905 398.06 823.109C398.623 821.709 399.189 820.314 399.745 818.902L401.404 814.647L403.054 810.374C403.601 808.945 404.153 807.523 404.688 806.075Z" fill="#4D0A4F"/>
<path d="M375.761 873.088C342.251 795.108 309.387 715.706 277.21 634.986C261.121 594.625 245.202 553.931 229.456 512.909C221.583 492.398 213.753 471.806 205.965 451.13L200.131 435.603L195.522 423.286L195.516 423.27L195.51 423.255L200.089 435.667L205.844 451.337C213.507 472.25 221.127 493.245 228.703 514.321C243.856 556.473 258.835 598.949 273.639 641.744C288.446 684.546 303.065 727.633 317.514 771.052C331.961 814.466 346.232 858.195 360.324 902.233C365.615 892.937 370.753 883.174 375.761 873.088Z" fill="#4D0A4F"/>
<path d="M343.063 930.534C331.227 893.288 319.55 855.813 308.024 818.075C296.497 780.337 285.128 742.361 273.916 704.151C262.705 665.942 251.651 627.499 240.757 588.827C229.863 550.156 219.129 511.259 208.549 472.113C229.428 550.755 249.67 630.31 269.266 710.742C279.065 750.964 288.696 791.378 298.166 832.012C307.635 872.646 316.942 913.494 326.085 954.552L328.244 951.697C328.962 950.74 329.681 949.787 330.392 948.8C331.818 946.841 333.24 944.866 334.658 942.875C335.368 941.886 336.072 940.869 336.774 939.849L338.881 936.78L340.98 933.688C341.679 932.652 342.37 931.588 343.063 930.534Z" fill="#4D0A4F"/>
<path d="M307.39 977.155C299.04 940.39 290.843 903.466 282.794 866.351C274.744 829.233 266.845 791.948 259.098 754.5C251.351 717.052 243.756 679.44 236.314 641.67C228.872 603.901 221.584 565.974 214.444 527.869C228.145 604.626 241.233 682.014 253.704 759.997C259.94 798.996 266.017 838.112 271.94 877.381C277.862 916.649 283.63 956.062 289.241 995.614L291.536 993.462C292.301 992.74 293.065 992.022 293.824 991.268C295.345 989.775 296.863 988.265 298.377 986.738C299.135 985.981 299.889 985.194 300.642 984.405L302.898 982.028L305.15 979.625C305.899 978.817 306.644 977.982 307.39 977.155Z" fill="#4D0A4F"/>
<path d="M269.486 1012.15C265.819 989.88 262.243 967.56 258.754 945.138C255.266 922.718 251.868 900.228 248.561 877.672C245.254 855.115 242.037 832.492 238.912 809.804C237.35 798.459 235.81 787.099 234.293 775.723C232.776 764.344 231.281 752.94 229.809 741.525C233.997 788.293 237.819 835.3 241.271 882.526C242.998 906.147 244.629 929.784 246.168 953.49C247.708 977.193 249.155 1000.95 250.509 1024.75C256.889 1021.06 263.215 1016.82 269.486 1012.15Z" fill="#4D0A4F"/>
<path d="M230.05 1034.94C228.215 1010.14 226.429 985.321 224.692 960.482C223.824 948.062 222.968 935.637 222.124 923.207C221.28 910.773 220.448 898.333 219.629 885.889C216.351 836.11 213.271 786.252 210.389 736.318C207.506 686.385 204.821 636.377 202.334 586.3C201.091 561.261 199.897 536.205 198.752 511.133C197.607 486.052 196.512 460.954 195.466 435.84C199.572 536.297 202.886 637.032 205.407 737.998C205.722 750.619 206.024 763.244 206.314 775.872C206.604 788.495 206.882 801.122 207.147 813.753C207.678 839.013 208.158 864.288 208.589 889.576C209.451 940.151 210.114 990.779 210.578 1041.45C217.094 1039.81 223.587 1037.59 230.05 1034.94Z" fill="#4D0A4F"/>
<path d="M-79.9091 570.425C-52.9726 554.026 -25.9907 538.146 1.03362 522.786C28.0584 507.426 55.1213 492.589 82.2385 478.266C109.352 463.945 136.505 450.146 163.694 436.871C170.492 433.552 177.291 430.266 184.093 427.013L194.297 422.157L195.521 421.578L195.521 421.578L195.52 421.579L195.518 421.58L195.502 421.587L195.486 421.594L184.066 426.684C177.25 429.704 170.431 432.691 163.61 435.645C136.325 447.462 109.007 458.754 81.6571 469.519C54.3075 480.284 26.9269 490.522 -0.481529 500.233C-27.8885 509.944 -55.3123 519.121 -82.7668 527.771C-82.6759 529.562 -82.5891 531.355 -82.4889 533.141L-82.1779 538.496L-81.8546 543.845C-81.7451 545.627 -81.6344 547.409 -81.5094 549.184C-81.2657 552.736 -81.0136 556.284 -80.7534 559.828C-80.6266 561.602 -80.4829 563.366 -80.3414 565.132L-79.9091 570.425Z" fill="#4D0A4F"/>
<path d="M189.756 -199.703C192.259 -98.7947 193.965 2.27164 194.873 103.449C195.327 154.029 195.581 204.679 195.636 255.331C195.691 305.987 195.546 356.665 195.202 407.359C195.584 356.657 196.165 305.933 196.945 255.192C197.725 204.466 198.705 153.729 199.885 102.979C202.245 1.48537 205.403 -100.071 209.359 -201.585C207.726 -201.558 206.092 -201.474 204.458 -201.392L202.007 -201.245L199.556 -201.018L197.105 -200.762C196.288 -200.667 195.471 -200.589 194.655 -200.463C193.022 -200.229 191.389 -199.976 189.756 -199.703Z" fill="#4D0A4F"/>
<path d="M230.134 -200.204C227.886 -131.275 225.097 -62.4083 221.769 6.36438C220.105 40.7434 218.305 75.1262 216.371 109.481C214.436 143.835 212.367 178.161 210.164 212.455C212.911 178.283 215.792 144.142 218.807 110.036C221.823 75.926 224.97 41.8873 228.252 7.86703C234.816 -60.1638 241.915 -128.042 249.547 -195.732C247.937 -196.217 246.326 -196.681 244.713 -197.126C243.906 -197.344 243.1 -197.577 242.291 -197.769L239.865 -198.34L237.437 -198.882C236.627 -199.059 235.817 -199.232 235.005 -199.373C233.383 -199.669 231.759 -199.946 230.134 -200.204Z" fill="#4D0A4F"/>
<path d="M269.87 -187.612C260.482 -97.648 250.396 -8.00545 239.618 81.2747C236.924 103.595 234.186 125.892 231.405 148.166C230.015 159.303 228.613 170.434 227.201 181.56C225.789 192.688 224.365 203.813 222.931 214.931C217.194 259.402 211.285 303.778 205.205 348.054C211.473 303.888 217.912 259.82 224.523 215.852C231.134 171.884 237.917 128.016 244.866 84.2816C258.766 -3.20107 273.348 -90.2575 288.605 -176.847C287.061 -177.855 285.514 -178.844 283.964 -179.815C283.191 -180.308 282.412 -180.769 281.632 -181.226L279.292 -182.589L276.948 -183.923L276.361 -184.252L275.772 -184.566L274.594 -185.189C273.022 -186.015 271.447 -186.823 269.87 -187.612Z" fill="#4D0A4F"/>
<path d="M307.932 -162.228C305.671 -148.3 303.383 -134.393 301.069 -120.507C298.754 -106.621 296.41 -92.7438 294.042 -78.8951C289.305 -51.1946 284.464 -23.5814 279.519 3.94125C274.574 31.4639 269.526 58.8961 264.375 86.2348C261.799 99.9047 259.199 113.549 256.571 127.174C253.943 140.804 251.288 154.411 248.608 167.994C260.616 114.911 273.031 62.2149 285.848 9.92926C292.258 -16.22 298.761 -42.2406 305.363 -68.1588C311.966 -94.0775 318.668 -119.891 325.468 -145.596L323.317 -147.826C322.6 -148.565 321.882 -149.303 321.154 -150.012C319.703 -151.442 318.248 -152.855 316.79 -154.252L315.695 -155.295L314.592 -156.31L312.38 -158.318L310.163 -160.3C309.792 -160.627 309.424 -160.959 309.051 -161.278L307.932 -162.228Z" fill="#4D0A4F"/>
</g>
<g opacity="0.72">
<path d="M295.388 -174.061C290.51 -139.909 285.505 -105.851 280.375 -71.8908C275.245 -37.9316 269.99 -4.07338 264.607 29.713C253.841 97.2704 242.574 164.419 230.811 231.129C233.994 214.658 237.207 198.213 240.451 181.796C243.695 165.384 246.968 149.006 250.273 132.653C256.882 99.9476 263.616 67.3552 270.473 34.8791C277.33 2.40297 284.31 -29.9568 291.413 -62.1965C294.964 -78.3145 298.546 -94.4102 302.158 -110.461C305.769 -126.511 309.411 -142.531 313.084 -158.519L311.992 -159.588C311.627 -159.942 311.261 -160.281 310.896 -160.626L308.699 -162.675L306.497 -164.698L305.395 -165.697L304.288 -166.663C302.812 -167.947 301.333 -169.213 299.85 -170.462C299.11 -171.094 298.367 -171.69 297.623 -172.285L295.388 -174.061Z" fill="#390639"/>
<path d="M331.343 -138.814C313.53 -57.7598 295.114 22.599 276.103 102.225C266.6 142.032 256.941 181.681 247.135 221.141C237.329 260.6 227.376 299.871 217.276 338.949C227.581 300.134 238.033 261.507 248.632 223.074C251.282 213.466 253.941 203.869 256.608 194.286C259.275 184.706 261.951 175.138 264.636 165.582C270.006 146.471 275.413 127.409 280.856 108.396C302.628 32.3441 324.98 -42.9154 347.903 -117.347C346.548 -119.236 345.189 -121.107 343.825 -122.963L342.802 -124.351L342.289 -125.042L341.773 -125.72L339.706 -128.415L337.631 -131.084C336.939 -131.971 336.246 -132.854 335.546 -133.707C334.149 -135.426 332.748 -137.129 331.343 -138.814Z" fill="#390639"/>
<path d="M364.675 -91.5923C350.752 -43.3349 336.477 4.36259 321.858 51.4753C314.548 75.0358 307.156 98.434 299.67 121.713C292.184 144.99 284.613 168.119 276.958 191.096C285.184 169.15 293.493 147.355 301.886 125.715C310.279 104.073 318.755 82.5859 327.305 61.2769C344.41 18.6473 361.842 -23.3545 379.595 -64.7089C378.386 -67.0398 377.17 -69.3561 375.949 -71.657C375.34 -72.8131 374.722 -73.9441 374.103 -75.0718L372.242 -78.4468L370.374 -81.7989C369.75 -82.9146 369.115 -83.9975 368.484 -85.0925C367.22 -87.2746 365.95 -89.4421 364.675 -91.5923Z" fill="#390639"/>
<path d="M394.423 -33.5762C361.666 46.4315 328.319 125.179 294.415 202.59C277.462 241.298 260.37 279.673 243.137 317.717C234.518 336.745 225.864 355.689 217.176 374.548C212.832 383.978 208.48 393.387 204.119 402.775L195.61 421.041L195.607 421.046L195.607 421.047L195.606 421.047L195.931 420.354L197.574 416.851L204.151 402.859C208.54 393.542 212.938 384.245 217.344 374.969C226.157 356.418 235.004 337.951 243.886 319.569C261.647 282.807 279.552 246.369 297.578 210.303C333.635 138.159 370.23 67.3838 407.347 -1.98914C406.309 -4.70023 405.265 -7.39867 404.214 -10.0836C403.692 -11.4316 403.153 -12.7488 402.62 -14.0762L401.011 -18.0395L399.393 -21.9827L397.747 -25.871C396.644 -28.4523 395.543 -31.0342 394.423 -33.5762Z" fill="#390639"/>
<path d="M419.909 33.7539C414.17 44.7928 408.408 55.7803 402.626 66.7135C396.844 77.6453 391.043 88.5201 385.224 99.3373C373.585 120.972 361.871 142.376 350.083 163.549C338.296 184.721 326.435 205.66 314.501 226.367C302.56 247.083 290.548 267.566 278.465 287.811C290.869 268.641 303.344 249.708 315.888 231.013C328.431 212.321 341.052 193.855 353.724 175.654C379.076 139.243 404.702 103.793 430.588 69.3216C429.741 66.292 428.887 63.2726 428.026 60.2645C427.599 58.7557 427.154 57.2728 426.715 55.7813L425.387 51.3226L424.049 46.8808L422.681 42.4853L421.303 38.1073L420.609 35.9248C420.379 35.1968 420.146 34.4723 419.909 33.7539Z" fill="#390639"/>
<path d="M440.667 108.921C405.689 157.638 370.369 204.997 334.744 250.95C316.93 273.929 299.04 296.555 281.069 318.836C263.094 341.121 245.042 363.056 226.917 384.636C245.129 363.472 263.417 342.661 281.779 322.203C300.14 301.747 318.579 281.64 337.077 261.905C374.077 222.429 411.365 184.38 448.923 147.776C448.281 144.486 447.631 141.203 446.973 137.929C446.647 136.289 446.306 134.667 445.967 133.041L444.942 128.174L443.906 123.321C443.555 121.71 443.197 120.108 442.84 118.504C442.122 115.301 441.405 112.098 440.667 108.921Z" fill="#390639"/>
<path d="M456.348 190.507C405.484 239.474 354.291 286.447 302.808 331.389C277.065 353.861 251.253 375.823 225.36 397.284C218.886 402.65 212.408 407.984 205.926 413.286L196.199 421.214L195.153 422.064L195.154 422.063L195.155 422.063L195.156 422.061L195.171 422.049L195.187 422.036L205.966 413.605C212.479 408.53 218.997 403.486 225.519 398.475C251.606 378.429 277.765 358.893 303.976 339.88C356.406 301.848 409.1 265.871 462.034 231.965C461.608 228.471 461.174 224.983 460.732 221.5C460.514 219.756 460.282 218.025 460.049 216.294L459.346 211.104L458.631 205.924C458.389 204.201 458.135 202.489 457.885 200.773C457.38 197.344 456.873 193.917 456.348 190.507Z" fill="#390639"/>
<path d="M466.656 277.073C424.373 303.384 381.927 328.018 339.355 350.955C318.067 362.424 296.751 373.468 275.395 384.091C254.037 394.715 232.648 404.914 211.231 414.686C232.661 405.118 254.121 395.975 275.609 387.258C297.096 378.541 318.616 370.249 340.146 362.391C383.214 346.671 426.384 332.663 469.637 320.374C469.439 316.741 469.232 313.112 469.018 309.486C468.914 307.671 468.793 305.865 468.674 304.058L468.309 298.64L467.932 293.228C467.802 291.427 467.661 289.632 467.522 287.835C467.241 284.244 466.958 280.652 466.656 277.073Z" fill="#390639"/>
<path d="M471.328 366.977C465.157 368.661 458.985 370.314 452.813 371.936C446.639 373.559 440.463 375.151 434.288 376.711C421.936 379.833 409.582 382.83 397.225 385.704C372.512 391.451 347.79 396.702 323.062 401.457C298.334 406.211 273.6 410.469 248.862 414.231C236.492 416.112 224.117 417.869 211.743 419.501L202.462 420.702L197.822 421.285L196.662 421.429L196.389 421.463H196.389L196.391 421.463L196.394 421.462L202.46 420.794L211.74 419.81C224.115 418.529 236.489 417.372 248.864 416.34C273.612 414.275 298.369 412.707 323.11 411.638C372.591 409.5 422.064 409.353 471.506 411.199C471.544 407.508 471.573 403.817 471.594 400.127C471.606 396.438 471.596 392.751 471.586 389.065C471.579 387.221 471.572 385.378 471.559 383.536L471.497 378.014L471.422 372.493L471.38 369.734L471.357 368.355L471.328 366.977Z" fill="#390639"/>
<path d="M470.198 458.209C440.902 457.983 411.615 456.571 382.4 453.989C367.791 452.698 353.196 451.113 338.617 449.235C331.327 448.295 324.043 447.284 316.76 446.197C309.474 445.111 302.193 443.951 294.917 442.719C323.854 450.304 352.722 459.06 381.508 468.982C395.904 473.945 410.262 479.192 424.605 484.733C438.947 490.274 453.266 496.105 467.561 502.226C468.677 487.635 469.534 472.935 470.198 458.209Z" fill="#390639"/>
<path d="M463.31 548.359C406.672 529.028 350.427 505.145 294.759 476.861C298.198 478.964 301.636 481.085 305.07 483.222C308.503 485.359 311.934 487.512 315.363 489.684C322.22 494.026 329.069 498.437 335.909 502.916C349.588 511.875 363.231 521.109 376.837 530.616C390.443 540.124 404.012 549.906 417.542 559.96C431.071 570.014 444.549 580.325 457.994 590.914C458.241 589.163 458.493 587.421 458.731 585.66L459.438 580.373L460.133 575.078L460.477 572.428L460.648 571.103L460.812 569.77C461.683 562.657 462.543 555.549 463.31 548.359Z" fill="#390639"/>
<path d="M450.991 635.073C427.193 619.151 403.552 602.291 380.079 584.5C374.209 580.052 368.355 575.548 362.503 570.982C356.652 566.416 350.811 561.791 344.982 557.109C333.322 547.744 321.706 538.146 310.135 528.318C355.232 573.857 399.547 623.04 443.078 675.87C444.485 669.14 445.885 662.391 447.188 655.582L448.171 650.475L448.658 647.918C448.82 647.065 448.974 646.209 449.132 645.355C449.759 641.934 450.379 638.506 450.991 635.073Z" fill="#390639"/>
<path d="M433.301 718.024C423.62 708.103 413.968 697.971 404.372 687.655C394.774 677.338 385.223 666.829 375.721 656.129C366.219 645.43 356.765 634.54 347.361 623.461C337.955 612.38 328.59 601.098 319.281 589.634C336.972 615.943 354.46 643.002 371.731 670.792C388.989 698.565 406.033 727.075 422.854 756.308C423.77 753.178 424.678 750.037 425.58 746.887C426.469 743.721 427.348 740.54 428.222 737.352C428.657 735.757 429.096 734.165 429.524 732.56L430.796 727.731L432.057 722.887C432.474 721.269 432.897 719.657 433.301 718.024Z" fill="#390639"/>
<path d="M410.521 795.168C371.134 731.461 332.263 666.104 293.956 599.184C274.802 565.724 255.787 531.869 236.913 497.625C227.476 480.503 218.075 463.284 208.709 445.967L201.689 432.957L196.138 422.628L196.131 422.615L196.125 422.602L201.653 433.036L208.607 446.217C217.871 463.816 227.1 481.512 236.293 499.305C254.678 534.891 272.921 570.863 291.018 607.217C309.118 643.577 327.058 680.289 344.859 717.394C362.658 754.496 380.31 791.975 397.812 829.828C402.226 818.631 406.451 807.033 410.521 795.168Z" fill="#390639"/>
<path d="M383.243 864.365C368.521 832.319 353.936 799.985 339.477 767.335C325.018 734.683 310.692 701.738 296.502 668.501C282.312 635.264 268.258 601.736 254.341 567.922C240.424 534.108 226.645 500.008 212.996 465.606C240.047 534.865 266.549 605.27 292.49 676.788C305.463 712.553 318.286 748.572 330.97 784.869C343.654 821.167 356.196 857.738 368.595 894.579L370.474 890.933C371.098 889.714 371.724 888.497 372.339 887.25C373.574 884.77 374.804 882.275 376.029 879.767C376.643 878.518 377.248 877.244 377.852 875.968L379.662 872.133L381.463 868.276C382.062 866.986 382.651 865.672 383.243 864.365Z" fill="#390639"/>
<path d="M352.142 924.068C340.88 891.141 329.755 857.999 318.759 824.613C307.761 791.223 296.898 757.611 286.171 723.778C275.443 689.946 264.851 655.894 254.396 621.627C243.941 587.361 233.623 552.88 223.436 518.166C243.288 588.357 262.591 659.405 281.338 731.279C290.714 767.222 299.942 803.343 309.032 839.675C318.123 876.005 327.072 912.537 335.881 949.268L337.953 946.261C338.642 945.254 339.332 944.251 340.014 943.215C341.381 941.156 342.743 939.082 344.102 936.992C344.782 935.953 345.455 934.887 346.128 933.819L348.143 930.604L350.151 927.367C350.819 926.281 351.479 925.171 352.142 924.068Z" fill="#390639"/>
<path d="M317.882 973.194C312.424 952.715 307.053 932.146 301.757 911.443C296.462 890.742 291.25 869.937 286.122 849.031C280.994 828.125 275.949 807.118 270.988 786.012C268.508 775.459 266.049 764.882 263.611 754.28C261.172 743.674 258.752 733.036 256.355 722.379C264.37 766.759 272.045 811.518 279.376 856.635C283.044 879.201 286.617 901.819 290.108 924.542C293.598 947.261 297.002 970.067 300.319 992.958C306.269 986.853 312.12 980.222 317.882 973.194Z" fill="#390639"/>
<path d="M281.099 1010.92C277.228 987.235 273.403 963.513 269.624 939.753C267.735 927.872 265.857 915.982 263.991 904.082C262.125 892.178 260.27 880.263 258.427 868.34C251.054 820.644 243.868 772.793 236.869 724.792C229.871 676.79 223.06 628.639 216.437 580.343C213.126 556.195 209.862 532.01 206.645 507.791C203.427 483.563 200.256 459.299 197.132 435C209.551 532.227 221.216 630.034 232.122 728.378C233.485 740.671 234.837 752.972 236.176 765.281C237.515 777.587 238.842 789.9 240.157 802.222C242.787 826.865 245.37 851.542 247.905 876.25C252.975 925.667 257.854 975.212 262.542 1024.88C268.797 1020.74 274.98 1016.04 281.099 1010.92Z" fill="#390639"/>
<path d="M242.444 1036.5C240.133 1011.68 237.87 986.83 235.656 961.959C233.442 937.09 231.276 912.192 229.158 887.261C224.923 837.405 220.882 787.454 217.036 737.415C213.191 687.377 209.54 637.25 206.084 587.04C204.357 561.935 202.678 536.809 201.048 511.664C199.417 486.513 197.836 461.336 196.303 436.144C202.362 536.923 207.638 638.034 212.13 739.43C214.376 790.136 216.424 840.874 218.275 891.694C220.127 942.511 221.782 993.393 223.24 1044.33C229.677 1042.26 236.081 1039.6 242.444 1036.5Z" fill="#390639"/>
<path d="M202.666 1049.3C201.461 1014.78 200.391 980.249 199.454 945.682C198.518 911.104 197.716 876.505 197.048 841.888C196.38 807.27 195.847 772.635 195.449 737.987C195.05 703.334 194.786 668.689 194.656 633.99C193.829 703.422 192.463 772.897 190.559 842.382C190.083 859.754 189.573 877.125 189.03 894.497C188.487 911.863 187.91 929.224 187.3 946.587C186.08 981.312 184.725 1016.04 183.235 1050.75L185.663 1050.75L186.877 1050.74L188.091 1050.69C189.711 1050.62 191.331 1050.53 192.95 1050.43C193.76 1050.38 194.57 1050.29 195.38 1050.21L197.809 1049.95L200.238 1049.66C201.048 1049.55 201.857 1049.42 202.666 1049.3Z" fill="#390639"/>
<path d="M3.91314 892.639C19.6471 851.322 35.5313 810.314 51.564 769.62C67.598 728.924 83.7749 688.554 100.111 648.472C116.445 608.397 132.924 568.64 149.549 529.205C157.861 509.488 166.209 489.851 174.594 470.295C178.786 460.518 182.987 450.76 187.197 441.023L195.277 422.386L195.278 422.383L195.278 422.382L195.279 422.382L195.279 422.382L195.1 422.792L193.513 426.428L187.16 440.952C182.92 450.625 178.669 460.279 174.412 469.909C165.898 489.167 157.349 508.344 148.763 527.44C131.592 565.631 114.279 603.495 96.8245 641.03C79.3704 678.564 61.7756 715.767 44.0421 752.636C35.1743 771.073 26.2753 789.418 17.3433 807.677C8.41062 825.937 -0.556417 844.113 -9.55762 862.205C-5.23158 872.7 -0.752588 882.886 3.91314 892.639Z" fill="#390639"/>
<path d="M-61.7666 674.237C-36.7119 647.654 -11.5693 621.564 13.6583 595.969C38.8865 570.374 64.1955 545.278 89.6008 520.667C115.003 496.059 140.487 471.949 166.051 448.341C172.441 442.439 178.837 436.568 185.238 430.729L194.843 421.994L195.995 420.949L195.995 420.949L195.994 420.95L195.992 420.952L195.977 420.965L195.962 420.979L185.185 430.417C178.75 436.032 172.31 441.616 165.865 447.169C140.086 469.38 114.23 491.087 88.2999 512.288C62.3694 533.489 36.3644 554.184 10.2882 574.371C-15.7868 594.557 -41.9226 614.225 -68.1328 633.387C-67.8941 635.113 -67.6591 636.843 -67.4116 638.562L-66.6594 643.708L-65.8954 648.845C-65.6392 650.556 -65.3818 652.266 -65.1109 653.963C-64.5751 657.362 -64.0315 660.755 -63.4801 664.14C-63.2076 665.836 -62.9193 667.516 -62.633 669.198L-61.7666 674.237Z" fill="#390639"/>
<path d="M178.014 -204.131C181.566 -135.453 184.583 -66.6264 187.062 2.31691C188.302 36.7811 189.408 71.3023 190.38 105.848C191.351 140.392 192.189 174.961 192.892 209.552C192.732 174.871 192.707 140.168 192.816 105.448C192.925 70.7238 193.169 36.0188 193.548 1.2793C194.304 -68.1897 195.599 -137.716 197.432 -207.265C195.812 -207.117 194.193 -206.948 192.573 -206.76C191.763 -206.662 190.953 -206.579 190.144 -206.454L187.716 -206.073L185.289 -205.664C184.48 -205.524 183.671 -205.38 182.863 -205.204C181.246 -204.865 179.63 -204.508 178.014 -204.131Z" fill="#390639"/>
<path d="M218.047 -207.161C216.351 -115.021 213.945 -22.9259 210.829 69.0811C210.05 92.0828 209.227 115.079 208.36 138.069C207.926 149.564 207.481 161.058 207.025 172.55C206.569 184.045 206.102 195.541 205.623 207.034C203.71 253.007 201.62 298.952 199.354 344.865C201.813 298.988 204.449 253.138 207.262 207.323C210.075 161.505 213.065 115.72 216.229 70.0027C222.557 -21.4476 229.59 -112.743 237.325 -203.841C235.726 -204.234 234.126 -204.607 232.525 -204.961C231.725 -205.145 230.922 -205.297 230.119 -205.444L227.71 -205.876L225.299 -206.28L224.696 -206.375L224.092 -206.456L222.883 -206.611C221.272 -206.814 219.66 -206.997 218.047 -207.161Z" fill="#390639"/>
<path d="M257.506 -196.959C256.451 -182.381 255.368 -167.813 254.257 -153.256C253.147 -138.698 252.006 -124.137 250.84 -109.595C248.507 -80.5082 246.064 -51.4665 243.512 -22.4737C240.96 6.51901 238.3 35.463 235.53 64.3546C234.145 78.8012 232.733 93.2319 231.294 107.654C229.854 122.083 228.386 136.498 226.892 150.899C234.238 94.0221 242.015 37.3674 250.221 -19.0388C254.325 -47.2492 258.531 -75.3687 262.843 -103.426C267.155 -131.485 271.574 -159.478 276.098 -187.403L273.801 -188.761C273.036 -189.21 272.27 -189.658 271.497 -190.073C269.954 -190.916 268.408 -191.742 266.861 -192.55L265.7 -193.152L264.533 -193.722L262.196 -194.839L259.855 -195.929C259.465 -196.106 259.075 -196.29 258.683 -196.459L257.506 -196.959Z" fill="#390639"/>
</g>
</g>
</svg>
